<svg xmlns="http://www.w3.org/2000/svg" xmlns:xlink="http://www.w3.org/1999/xlink" width="1500" zoomAndPan="magnify" viewBox="0 0 1125 374.999991" height="500" preserveAspectRatio="xMidYMid meet" version="1.0"><defs><g/><linearGradient x1="0" gradientTransform="matrix(0.75, 0, 0, 0.75, 0.0000135, 0)" y1="250" x2="1499.999937" gradientUnits="userSpaceOnUse" y2="250" id="5f250b4f36"><stop stop-opacity="1" stop-color="rgb(31.799316%, 43.899536%, 100%)" offset="0"/><stop stop-opacity="1" stop-color="rgb(32.064819%, 43.884277%, 99.908447%)" offset="0.00390625"/><stop stop-opacity="1" stop-color="rgb(32.331848%, 43.869019%, 99.81842%)" offset="0.0078125"/><stop stop-opacity="1" stop-color="rgb(32.597351%, 43.85376%, 99.728394%)" offset="0.0117188"/><stop stop-opacity="1" stop-color="rgb(32.86438%, 43.838501%, 99.638367%)" offset="0.015625"/><stop stop-opacity="1" stop-color="rgb(33.129883%, 43.823242%, 99.54834%)" offset="0.0195312"/><stop stop-opacity="1" stop-color="rgb(33.396912%, 43.807983%, 99.458313%)" offset="0.0234375"/><stop stop-opacity="1" stop-color="rgb(33.66394%, 43.792725%, 99.36676%)" offset="0.0273438"/><stop stop-opacity="1" stop-color="rgb(33.930969%, 43.777466%, 99.276733%)" offset="0.03125"/><stop stop-opacity="1" stop-color="rgb(34.196472%, 43.762207%, 99.186707%)" offset="0.0351562"/><stop stop-opacity="1" stop-color="rgb(34.463501%, 43.746948%, 99.09668%)" offset="0.0390625"/><stop stop-opacity="1" stop-color="rgb(34.729004%, 43.731689%, 99.006653%)" offset="0.0429688"/><stop stop-opacity="1" stop-color="rgb(34.996033%, 43.716431%, 98.916626%)" offset="0.046875"/><stop stop-opacity="1" stop-color="rgb(35.261536%, 43.701172%, 98.826599%)" offset="0.0507812"/><stop stop-opacity="1" stop-color="rgb(35.528564%, 43.685913%, 98.736572%)" offset="0.0546875"/><stop stop-opacity="1" stop-color="rgb(35.794067%, 43.670654%, 98.64502%)" offset="0.0585938"/><stop stop-opacity="1" stop-color="rgb(36.061096%, 43.655396%, 98.554993%)" offset="0.0625"/><stop stop-opacity="1" stop-color="rgb(36.328125%, 43.640137%, 98.464966%)" offset="0.0664062"/><stop stop-opacity="1" stop-color="rgb(36.595154%, 43.624878%, 98.374939%)" offset="0.0703125"/><stop stop-opacity="1" stop-color="rgb(36.860657%, 43.609619%, 98.284912%)" offset="0.0742188"/><stop stop-opacity="1" stop-color="rgb(37.127686%, 43.59436%, 98.194885%)" offset="0.078125"/><stop stop-opacity="1" stop-color="rgb(37.393188%, 43.579102%, 98.104858%)" offset="0.0820312"/><stop stop-opacity="1" stop-color="rgb(37.660217%, 43.563843%, 98.014832%)" offset="0.0859375"/><stop stop-opacity="1" stop-color="rgb(37.92572%, 43.548584%, 97.923279%)" offset="0.0898438"/><stop stop-opacity="1" stop-color="rgb(38.192749%, 43.533325%, 97.833252%)" offset="0.09375"/><stop stop-opacity="1" stop-color="rgb(38.458252%, 43.518066%, 97.743225%)" offset="0.0976562"/><stop stop-opacity="1" stop-color="rgb(38.725281%, 43.502808%, 97.653198%)" offset="0.101562"/><stop stop-opacity="1" stop-color="rgb(38.99231%, 43.487549%, 97.563171%)" offset="0.105469"/><stop stop-opacity="1" stop-color="rgb(39.259338%, 43.47229%, 97.473145%)" offset="0.109375"/><stop stop-opacity="1" stop-color="rgb(39.524841%, 43.457031%, 97.381592%)" offset="0.113281"/><stop stop-opacity="1" stop-color="rgb(39.79187%, 43.441772%, 97.291565%)" offset="0.117188"/><stop stop-opacity="1" stop-color="rgb(40.057373%, 43.426514%, 97.201538%)" offset="0.121094"/><stop stop-opacity="1" stop-color="rgb(40.324402%, 43.411255%, 97.111511%)" offset="0.125"/><stop stop-opacity="1" stop-color="rgb(40.589905%, 43.395996%, 97.021484%)" offset="0.128906"/><stop stop-opacity="1" stop-color="rgb(40.856934%, 43.380737%, 96.931458%)" offset="0.132812"/><stop stop-opacity="1" stop-color="rgb(41.122437%, 43.365479%, 96.841431%)" offset="0.136719"/><stop stop-opacity="1" stop-color="rgb(41.389465%, 43.35022%, 96.751404%)" offset="0.140625"/><stop stop-opacity="1" stop-color="rgb(41.654968%, 43.334961%, 96.659851%)" offset="0.144531"/><stop stop-opacity="1" stop-color="rgb(41.921997%, 43.319702%, 96.569824%)" offset="0.148438"/><stop stop-opacity="1" stop-color="rgb(42.189026%, 43.304443%, 96.479797%)" offset="0.152344"/><stop stop-opacity="1" stop-color="rgb(42.456055%, 43.289185%, 96.389771%)" offset="0.15625"/><stop stop-opacity="1" stop-color="rgb(42.721558%, 43.273926%, 96.299744%)" offset="0.160156"/><stop stop-opacity="1" stop-color="rgb(42.988586%, 43.258667%, 96.209717%)" offset="0.164062"/><stop stop-opacity="1" stop-color="rgb(43.254089%, 43.243408%, 96.11969%)" offset="0.167969"/><stop stop-opacity="1" stop-color="rgb(43.521118%, 43.229675%, 96.029663%)" offset="0.171875"/><stop stop-opacity="1" stop-color="rgb(43.786621%, 43.214417%, 95.93811%)" offset="0.175781"/><stop stop-opacity="1" stop-color="rgb(44.05365%, 43.199158%, 95.848083%)" offset="0.179688"/><stop stop-opacity="1" stop-color="rgb(44.319153%, 43.183899%, 95.758057%)" offset="0.183594"/><stop stop-opacity="1" stop-color="rgb(44.586182%, 43.16864%, 95.66803%)" offset="0.1875"/><stop stop-opacity="1" stop-color="rgb(44.85321%, 43.153381%, 95.578003%)" offset="0.191406"/><stop stop-opacity="1" stop-color="rgb(45.120239%, 43.138123%, 95.487976%)" offset="0.195312"/><stop stop-opacity="1" stop-color="rgb(45.385742%, 43.122864%, 95.396423%)" offset="0.199219"/><stop stop-opacity="1" stop-color="rgb(45.652771%, 43.107605%, 95.306396%)" offset="0.203125"/><stop stop-opacity="1" stop-color="rgb(45.918274%, 43.092346%, 95.21637%)" offset="0.207031"/><stop stop-opacity="1" stop-color="rgb(46.185303%, 43.077087%, 95.126343%)" offset="0.210938"/><stop stop-opacity="1" stop-color="rgb(46.450806%, 43.061829%, 95.036316%)" offset="0.214844"/><stop stop-opacity="1" stop-color="rgb(46.717834%, 43.04657%, 94.946289%)" offset="0.21875"/><stop stop-opacity="1" stop-color="rgb(46.983337%, 43.031311%, 94.856262%)" offset="0.222656"/><stop stop-opacity="1" stop-color="rgb(47.250366%, 43.016052%, 94.766235%)" offset="0.226562"/><stop stop-opacity="1" stop-color="rgb(47.515869%, 43.000793%, 94.674683%)" offset="0.230469"/><stop stop-opacity="1" stop-color="rgb(47.782898%, 42.985535%, 94.584656%)" offset="0.234375"/><stop stop-opacity="1" stop-color="rgb(48.049927%, 42.970276%, 94.494629%)" offset="0.238281"/><stop stop-opacity="1" stop-color="rgb(48.316956%, 42.955017%, 94.404602%)" offset="0.242188"/><stop stop-opacity="1" stop-color="rgb(48.582458%, 42.939758%, 94.314575%)" offset="0.246094"/><stop stop-opacity="1" stop-color="rgb(48.849487%, 42.9245%, 94.224548%)" offset="0.25"/><stop stop-opacity="1" stop-color="rgb(49.11499%, 42.909241%, 94.134521%)" offset="0.253906"/><stop stop-opacity="1" stop-color="rgb(49.382019%, 42.893982%, 94.044495%)" offset="0.257812"/><stop stop-opacity="1" stop-color="rgb(49.647522%, 42.878723%, 93.952942%)" offset="0.261719"/><stop stop-opacity="1" stop-color="rgb(49.914551%, 42.863464%, 93.862915%)" offset="0.265625"/><stop stop-opacity="1" stop-color="rgb(50.180054%, 42.848206%, 93.772888%)" offset="0.269531"/><stop stop-opacity="1" stop-color="rgb(50.447083%, 42.832947%, 93.682861%)" offset="0.273438"/><stop stop-opacity="1" stop-color="rgb(50.714111%, 42.817688%, 93.592834%)" offset="0.277344"/><stop stop-opacity="1" stop-color="rgb(50.98114%, 42.802429%, 93.502808%)" offset="0.28125"/><stop stop-opacity="1" stop-color="rgb(51.246643%, 42.78717%, 93.411255%)" offset="0.285156"/><stop stop-opacity="1" stop-color="rgb(51.513672%, 42.771912%, 93.321228%)" offset="0.289062"/><stop stop-opacity="1" stop-color="rgb(51.779175%, 42.756653%, 93.231201%)" offset="0.292969"/><stop stop-opacity="1" stop-color="rgb(52.046204%, 42.741394%, 93.141174%)" offset="0.296875"/><stop stop-opacity="1" stop-color="rgb(52.311707%, 42.726135%, 93.051147%)" offset="0.300781"/><stop stop-opacity="1" stop-color="rgb(52.578735%, 42.710876%, 92.961121%)" offset="0.304688"/><stop stop-opacity="1" stop-color="rgb(52.844238%, 42.695618%, 92.871094%)" offset="0.308594"/><stop stop-opacity="1" stop-color="rgb(53.111267%, 42.680359%, 92.781067%)" offset="0.3125"/><stop stop-opacity="1" stop-color="rgb(53.37677%, 42.6651%, 92.689514%)" offset="0.316406"/><stop stop-opacity="1" stop-color="rgb(53.643799%, 42.649841%, 92.599487%)" offset="0.320312"/><stop stop-opacity="1" stop-color="rgb(53.910828%, 42.634583%, 92.50946%)" offset="0.324219"/><stop stop-opacity="1" stop-color="rgb(54.177856%, 42.619324%, 92.419434%)" offset="0.328125"/><stop stop-opacity="1" stop-color="rgb(54.443359%, 42.604065%, 92.329407%)" offset="0.332031"/><stop stop-opacity="1" stop-color="rgb(54.710388%, 42.588806%, 92.23938%)" offset="0.335938"/><stop stop-opacity="1" stop-color="rgb(54.975891%, 42.573547%, 92.149353%)" offset="0.339844"/><stop stop-opacity="1" stop-color="rgb(55.24292%, 42.558289%, 92.059326%)" offset="0.34375"/><stop stop-opacity="1" stop-color="rgb(55.508423%, 42.54303%, 91.967773%)" offset="0.347656"/><stop stop-opacity="1" stop-color="rgb(55.775452%, 42.527771%, 91.877747%)" offset="0.351562"/><stop stop-opacity="1" stop-color="rgb(56.040955%, 42.512512%, 91.78772%)" offset="0.355469"/><stop stop-opacity="1" stop-color="rgb(56.307983%, 42.497253%, 91.697693%)" offset="0.359375"/><stop stop-opacity="1" stop-color="rgb(56.575012%, 42.481995%, 91.607666%)" offset="0.363281"/><stop stop-opacity="1" stop-color="rgb(56.842041%, 42.466736%, 91.517639%)" offset="0.367188"/><stop stop-opacity="1" stop-color="rgb(57.107544%, 42.451477%, 91.426086%)" offset="0.371094"/><stop stop-opacity="1" stop-color="rgb(57.374573%, 42.436218%, 91.33606%)" offset="0.375"/><stop stop-opacity="1" stop-color="rgb(57.640076%, 42.420959%, 91.246033%)" offset="0.378906"/><stop stop-opacity="1" stop-color="rgb(57.907104%, 42.405701%, 91.156006%)" offset="0.382812"/><stop stop-opacity="1" stop-color="rgb(58.172607%, 42.390442%, 91.065979%)" offset="0.386719"/><stop stop-opacity="1" stop-color="rgb(58.439636%, 42.375183%, 90.975952%)" offset="0.390625"/><stop stop-opacity="1" stop-color="rgb(58.705139%, 42.359924%, 90.885925%)" offset="0.394531"/><stop stop-opacity="1" stop-color="rgb(58.972168%, 42.344666%, 90.795898%)" offset="0.398438"/><stop stop-opacity="1" stop-color="rgb(59.239197%, 42.329407%, 90.704346%)" offset="0.402344"/><stop stop-opacity="1" stop-color="rgb(59.506226%, 42.314148%, 90.614319%)" offset="0.40625"/><stop stop-opacity="1" stop-color="rgb(59.771729%, 42.298889%, 90.524292%)" offset="0.410156"/><stop stop-opacity="1" stop-color="rgb(60.038757%, 42.285156%, 90.434265%)" offset="0.414062"/><stop stop-opacity="1" stop-color="rgb(60.30426%, 42.269897%, 90.344238%)" offset="0.417969"/><stop stop-opacity="1" stop-color="rgb(60.571289%, 42.254639%, 90.254211%)" offset="0.421875"/><stop stop-opacity="1" stop-color="rgb(60.836792%, 42.23938%, 90.164185%)" offset="0.425781"/><stop stop-opacity="1" stop-color="rgb(61.103821%, 42.224121%, 90.074158%)" offset="0.429688"/><stop stop-opacity="1" stop-color="rgb(61.369324%, 42.208862%, 89.982605%)" offset="0.433594"/><stop stop-opacity="1" stop-color="rgb(61.636353%, 42.193604%, 89.892578%)" offset="0.4375"/><stop stop-opacity="1" stop-color="rgb(61.901855%, 42.178345%, 89.802551%)" offset="0.441406"/><stop stop-opacity="1" stop-color="rgb(62.168884%, 42.163086%, 89.712524%)" offset="0.445312"/><stop stop-opacity="1" stop-color="rgb(62.435913%, 42.147827%, 89.622498%)" offset="0.449219"/><stop stop-opacity="1" stop-color="rgb(62.702942%, 42.132568%, 89.532471%)" offset="0.453125"/><stop stop-opacity="1" stop-color="rgb(62.968445%, 42.11731%, 89.440918%)" offset="0.457031"/><stop stop-opacity="1" stop-color="rgb(63.235474%, 42.102051%, 89.350891%)" offset="0.460938"/><stop stop-opacity="1" stop-color="rgb(63.500977%, 42.086792%, 89.260864%)" offset="0.464844"/><stop stop-opacity="1" stop-color="rgb(63.768005%, 42.071533%, 89.170837%)" offset="0.46875"/><stop stop-opacity="1" stop-color="rgb(64.033508%, 42.056274%, 89.080811%)" offset="0.472656"/><stop stop-opacity="1" stop-color="rgb(64.300537%, 42.041016%, 88.990784%)" offset="0.476562"/><stop stop-opacity="1" stop-color="rgb(64.56604%, 42.025757%, 88.900757%)" offset="0.480469"/><stop stop-opacity="1" stop-color="rgb(64.833069%, 42.010498%, 88.81073%)" offset="0.484375"/><stop stop-opacity="1" stop-color="rgb(65.100098%, 41.995239%, 88.719177%)" offset="0.488281"/><stop stop-opacity="1" stop-color="rgb(65.367126%, 41.97998%, 88.62915%)" offset="0.492188"/><stop stop-opacity="1" stop-color="rgb(65.632629%, 41.964722%, 88.539124%)" offset="0.496094"/><stop stop-opacity="1" stop-color="rgb(65.899658%, 41.949463%, 88.449097%)" offset="0.5"/><stop stop-opacity="1" stop-color="rgb(66.165161%, 41.934204%, 88.35907%)" offset="0.503906"/><stop stop-opacity="1" stop-color="rgb(66.43219%, 41.918945%, 88.269043%)" offset="0.507812"/><stop stop-opacity="1" stop-color="rgb(66.697693%, 41.903687%, 88.179016%)" offset="0.511719"/><stop stop-opacity="1" stop-color="rgb(66.964722%, 41.888428%, 88.088989%)" offset="0.515625"/><stop stop-opacity="1" stop-color="rgb(67.230225%, 41.873169%, 87.997437%)" offset="0.519531"/><stop stop-opacity="1" stop-color="rgb(67.497253%, 41.85791%, 87.90741%)" offset="0.523438"/><stop stop-opacity="1" stop-color="rgb(67.762756%, 41.842651%, 87.817383%)" offset="0.527344"/><stop stop-opacity="1" stop-color="rgb(68.029785%, 41.827393%, 87.727356%)" offset="0.53125"/><stop stop-opacity="1" stop-color="rgb(68.296814%, 41.812134%, 87.637329%)" offset="0.535156"/><stop stop-opacity="1" stop-color="rgb(68.563843%, 41.796875%, 87.547302%)" offset="0.539062"/><stop stop-opacity="1" stop-color="rgb(68.829346%, 41.781616%, 87.45575%)" offset="0.542969"/><stop stop-opacity="1" stop-color="rgb(69.096375%, 41.766357%, 87.365723%)" offset="0.546875"/><stop stop-opacity="1" stop-color="rgb(69.361877%, 41.751099%, 87.275696%)" offset="0.550781"/><stop stop-opacity="1" stop-color="rgb(69.628906%, 41.73584%, 87.185669%)" offset="0.554688"/><stop stop-opacity="1" stop-color="rgb(69.894409%, 41.720581%, 87.095642%)" offset="0.558594"/><stop stop-opacity="1" stop-color="rgb(70.161438%, 41.705322%, 87.005615%)" offset="0.5625"/><stop stop-opacity="1" stop-color="rgb(70.426941%, 41.690063%, 86.915588%)" offset="0.566406"/><stop stop-opacity="1" stop-color="rgb(70.69397%, 41.674805%, 86.825562%)" offset="0.570312"/><stop stop-opacity="1" stop-color="rgb(70.960999%, 41.659546%, 86.734009%)" offset="0.574219"/><stop stop-opacity="1" stop-color="rgb(71.228027%, 41.644287%, 86.643982%)" offset="0.578125"/><stop stop-opacity="1" stop-color="rgb(71.49353%, 41.629028%, 86.553955%)" offset="0.582031"/><stop stop-opacity="1" stop-color="rgb(71.760559%, 41.61377%, 86.463928%)" offset="0.585938"/><stop stop-opacity="1" stop-color="rgb(72.026062%, 41.598511%, 86.373901%)" offset="0.589844"/><stop stop-opacity="1" stop-color="rgb(72.293091%, 41.583252%, 86.283875%)" offset="0.59375"/><stop stop-opacity="1" stop-color="rgb(72.558594%, 41.567993%, 86.193848%)" offset="0.597656"/><stop stop-opacity="1" stop-color="rgb(72.825623%, 41.552734%, 86.103821%)" offset="0.601562"/><stop stop-opacity="1" stop-color="rgb(73.091125%, 41.537476%, 86.012268%)" offset="0.605469"/><stop stop-opacity="1" stop-color="rgb(73.358154%, 41.522217%, 85.922241%)" offset="0.609375"/><stop stop-opacity="1" stop-color="rgb(73.623657%, 41.506958%, 85.832214%)" offset="0.613281"/><stop stop-opacity="1" stop-color="rgb(73.890686%, 41.491699%, 85.742188%)" offset="0.617188"/><stop stop-opacity="1" stop-color="rgb(74.157715%, 41.47644%, 85.652161%)" offset="0.621094"/><stop stop-opacity="1" stop-color="rgb(74.424744%, 41.461182%, 85.562134%)" offset="0.625"/><stop stop-opacity="1" stop-color="rgb(74.690247%, 41.445923%, 85.470581%)" offset="0.628906"/><stop stop-opacity="1" stop-color="rgb(74.957275%, 41.430664%, 85.380554%)" offset="0.632812"/><stop stop-opacity="1" stop-color="rgb(75.222778%, 41.415405%, 85.290527%)" offset="0.636719"/><stop stop-opacity="1" stop-color="rgb(75.489807%, 41.400146%, 85.2005%)" offset="0.640625"/><stop stop-opacity="1" stop-color="rgb(75.75531%, 41.384888%, 85.110474%)" offset="0.644531"/><stop stop-opacity="1" stop-color="rgb(76.022339%, 41.369629%, 85.020447%)" offset="0.648438"/><stop stop-opacity="1" stop-color="rgb(76.287842%, 41.35437%, 84.93042%)" offset="0.652344"/><stop stop-opacity="1" stop-color="rgb(76.554871%, 41.339111%, 84.840393%)" offset="0.65625"/><stop stop-opacity="1" stop-color="rgb(76.821899%, 41.323853%, 84.74884%)" offset="0.660156"/><stop stop-opacity="1" stop-color="rgb(77.088928%, 41.31012%, 84.658813%)" offset="0.664062"/><stop stop-opacity="1" stop-color="rgb(77.354431%, 41.294861%, 84.568787%)" offset="0.667969"/><stop stop-opacity="1" stop-color="rgb(77.62146%, 41.279602%, 84.47876%)" offset="0.671875"/><stop stop-opacity="1" stop-color="rgb(77.886963%, 41.264343%, 84.388733%)" offset="0.675781"/><stop stop-opacity="1" stop-color="rgb(78.153992%, 41.249084%, 84.298706%)" offset="0.679688"/><stop stop-opacity="1" stop-color="rgb(78.419495%, 41.233826%, 84.208679%)" offset="0.683594"/><stop stop-opacity="1" stop-color="rgb(78.686523%, 41.218567%, 84.118652%)" offset="0.6875"/><stop stop-opacity="1" stop-color="rgb(78.952026%, 41.203308%, 84.0271%)" offset="0.691406"/><stop stop-opacity="1" stop-color="rgb(79.219055%, 41.188049%, 83.937073%)" offset="0.695312"/><stop stop-opacity="1" stop-color="rgb(79.486084%, 41.172791%, 83.847046%)" offset="0.699219"/><stop stop-opacity="1" stop-color="rgb(79.753113%, 41.157532%, 83.757019%)" offset="0.703125"/><stop stop-opacity="1" stop-color="rgb(80.018616%, 41.142273%, 83.666992%)" offset="0.707031"/><stop stop-opacity="1" stop-color="rgb(80.285645%, 41.127014%, 83.576965%)" offset="0.710938"/><stop stop-opacity="1" stop-color="rgb(80.551147%, 41.111755%, 83.485413%)" offset="0.714844"/><stop stop-opacity="1" stop-color="rgb(80.818176%, 41.096497%, 83.395386%)" offset="0.71875"/><stop stop-opacity="1" stop-color="rgb(81.083679%, 41.081238%, 83.305359%)" offset="0.722656"/><stop stop-opacity="1" stop-color="rgb(81.350708%, 41.065979%, 83.215332%)" offset="0.726562"/><stop stop-opacity="1" stop-color="rgb(81.616211%, 41.05072%, 83.125305%)" offset="0.730469"/><stop stop-opacity="1" stop-color="rgb(81.88324%, 41.035461%, 83.035278%)" offset="0.734375"/><stop stop-opacity="1" stop-color="rgb(82.148743%, 41.020203%, 82.945251%)" offset="0.738281"/><stop stop-opacity="1" stop-color="rgb(82.415771%, 41.004944%, 82.855225%)" offset="0.742188"/><stop stop-opacity="1" stop-color="rgb(82.6828%, 40.989685%, 82.763672%)" offset="0.746094"/><stop stop-opacity="1" stop-color="rgb(82.949829%, 40.974426%, 82.673645%)" offset="0.75"/><stop stop-opacity="1" stop-color="rgb(83.215332%, 40.959167%, 82.583618%)" offset="0.753906"/><stop stop-opacity="1" stop-color="rgb(83.482361%, 40.943909%, 82.493591%)" offset="0.757812"/><stop stop-opacity="1" stop-color="rgb(83.747864%, 40.92865%, 82.403564%)" offset="0.761719"/><stop stop-opacity="1" stop-color="rgb(84.014893%, 40.913391%, 82.313538%)" offset="0.765625"/><stop stop-opacity="1" stop-color="rgb(84.280396%, 40.898132%, 82.223511%)" offset="0.769531"/><stop stop-opacity="1" stop-color="rgb(84.547424%, 40.882874%, 82.133484%)" offset="0.773438"/><stop stop-opacity="1" stop-color="rgb(84.812927%, 40.867615%, 82.041931%)" offset="0.777344"/><stop stop-opacity="1" stop-color="rgb(85.079956%, 40.852356%, 81.951904%)" offset="0.78125"/><stop stop-opacity="1" stop-color="rgb(85.346985%, 40.837097%, 81.861877%)" offset="0.785156"/><stop stop-opacity="1" stop-color="rgb(85.614014%, 40.821838%, 81.771851%)" offset="0.789062"/><stop stop-opacity="1" stop-color="rgb(85.879517%, 40.80658%, 81.681824%)" offset="0.792969"/><stop stop-opacity="1" stop-color="rgb(86.146545%, 40.791321%, 81.591797%)" offset="0.796875"/><stop stop-opacity="1" stop-color="rgb(86.412048%, 40.776062%, 81.500244%)" offset="0.800781"/><stop stop-opacity="1" stop-color="rgb(86.679077%, 40.760803%, 81.410217%)" offset="0.804688"/><stop stop-opacity="1" stop-color="rgb(86.94458%, 40.745544%, 81.32019%)" offset="0.808594"/><stop stop-opacity="1" stop-color="rgb(87.211609%, 40.730286%, 81.230164%)" offset="0.8125"/><stop stop-opacity="1" stop-color="rgb(87.477112%, 40.715027%, 81.140137%)" offset="0.816406"/><stop stop-opacity="1" stop-color="rgb(87.744141%, 40.699768%, 81.05011%)" offset="0.820312"/><stop stop-opacity="1" stop-color="rgb(88.009644%, 40.684509%, 80.960083%)" offset="0.824219"/><stop stop-opacity="1" stop-color="rgb(88.276672%, 40.66925%, 80.870056%)" offset="0.828125"/><stop stop-opacity="1" stop-color="rgb(88.543701%, 40.653992%, 80.778503%)" offset="0.832031"/><stop stop-opacity="1" stop-color="rgb(88.81073%, 40.638733%, 80.688477%)" offset="0.835938"/><stop stop-opacity="1" stop-color="rgb(89.076233%, 40.623474%, 80.59845%)" offset="0.839844"/><stop stop-opacity="1" stop-color="rgb(89.343262%, 40.608215%, 80.508423%)" offset="0.84375"/><stop stop-opacity="1" stop-color="rgb(89.608765%, 40.592957%, 80.418396%)" offset="0.847656"/><stop stop-opacity="1" stop-color="rgb(89.875793%, 40.577698%, 80.328369%)" offset="0.851562"/><stop stop-opacity="1" stop-color="rgb(90.141296%, 40.562439%, 80.238342%)" offset="0.855469"/><stop stop-opacity="1" stop-color="rgb(90.408325%, 40.54718%, 80.148315%)" offset="0.859375"/><stop stop-opacity="1" stop-color="rgb(90.673828%, 40.531921%, 80.056763%)" offset="0.863281"/><stop stop-opacity="1" stop-color="rgb(90.940857%, 40.516663%, 79.966736%)" offset="0.867188"/><stop stop-opacity="1" stop-color="rgb(91.207886%, 40.501404%, 79.876709%)" offset="0.871094"/><stop stop-opacity="1" stop-color="rgb(91.474915%, 40.486145%, 79.786682%)" offset="0.875"/><stop stop-opacity="1" stop-color="rgb(91.740417%, 40.470886%, 79.696655%)" offset="0.878906"/><stop stop-opacity="1" stop-color="rgb(92.007446%, 40.455627%, 79.606628%)" offset="0.882812"/><stop stop-opacity="1" stop-color="rgb(92.272949%, 40.440369%, 79.515076%)" offset="0.886719"/><stop stop-opacity="1" stop-color="rgb(92.539978%, 40.42511%, 79.425049%)" offset="0.890625"/><stop stop-opacity="1" stop-color="rgb(92.805481%, 40.409851%, 79.335022%)" offset="0.894531"/><stop stop-opacity="1" stop-color="rgb(93.07251%, 40.394592%, 79.244995%)" offset="0.898438"/><stop stop-opacity="1" stop-color="rgb(93.338013%, 40.379333%, 79.154968%)" offset="0.902344"/><stop stop-opacity="1" stop-color="rgb(93.605042%, 40.365601%, 79.064941%)" offset="0.90625"/><stop stop-opacity="1" stop-color="rgb(93.870544%, 40.350342%, 78.974915%)" offset="0.910156"/><stop stop-opacity="1" stop-color="rgb(94.137573%, 40.335083%, 78.884888%)" offset="0.914062"/><stop stop-opacity="1" stop-color="rgb(94.404602%, 40.319824%, 78.793335%)" offset="0.917969"/><stop stop-opacity="1" stop-color="rgb(94.671631%, 40.304565%, 78.703308%)" offset="0.921875"/><stop stop-opacity="1" stop-color="rgb(94.937134%, 40.289307%, 78.613281%)" offset="0.925781"/><stop stop-opacity="1" stop-color="rgb(95.204163%, 40.274048%, 78.523254%)" offset="0.929688"/><stop stop-opacity="1" stop-color="rgb(95.469666%, 40.258789%, 78.433228%)" offset="0.933594"/><stop stop-opacity="1" stop-color="rgb(95.736694%, 40.24353%, 78.343201%)" offset="0.9375"/><stop stop-opacity="1" stop-color="rgb(96.002197%, 40.228271%, 78.253174%)" offset="0.941406"/><stop stop-opacity="1" stop-color="rgb(96.269226%, 40.213013%, 78.163147%)" offset="0.945312"/><stop stop-opacity="1" stop-color="rgb(96.534729%, 40.197754%, 78.071594%)" offset="0.949219"/><stop stop-opacity="1" stop-color="rgb(96.801758%, 40.182495%, 77.981567%)" offset="0.953125"/><stop stop-opacity="1" stop-color="rgb(97.068787%, 40.167236%, 77.891541%)" offset="0.957031"/><stop stop-opacity="1" stop-color="rgb(97.335815%, 40.151978%, 77.801514%)" offset="0.960938"/><stop stop-opacity="1" stop-color="rgb(97.601318%, 40.136719%, 77.711487%)" offset="0.964844"/><stop stop-opacity="1" stop-color="rgb(97.868347%, 40.12146%, 77.62146%)" offset="0.96875"/><stop stop-opacity="1" stop-color="rgb(98.13385%, 40.106201%, 77.531433%)" offset="0.972656"/><stop stop-opacity="1" stop-color="rgb(98.400879%, 40.090942%, 77.441406%)" offset="0.976562"/><stop stop-opacity="1" stop-color="rgb(98.666382%, 40.075684%, 77.349854%)" offset="0.980469"/><stop stop-opacity="1" stop-color="rgb(98.933411%, 40.060425%, 77.259827%)" offset="0.984375"/><stop stop-opacity="1" stop-color="rgb(99.198914%, 40.045166%, 77.1698%)" offset="0.988281"/><stop stop-opacity="1" stop-color="rgb(99.465942%, 40.029907%, 77.079773%)" offset="0.992188"/><stop stop-opacity="1" stop-color="rgb(99.731445%, 40.014648%, 76.989746%)" offset="0.996094"/><stop stop-opacity="1" stop-color="rgb(99.998474%, 39.99939%, 76.899719%)" offset="1"/></linearGradient><clipPath id="210af7ffc9"><path d="M 302.886719 98 L 319 98 L 319 114 L 302.886719 114 Z M 302.886719 98 " clip-rule="nonzero"/></clipPath><clipPath id="106bd6290e"><path d="M 830.390625 85.675781 L 1026.355469 85.675781 L 1026.355469 294 L 830.390625 294 Z M 830.390625 85.675781 " clip-rule="nonzero"/></clipPath><clipPath id="1c1289d3d1"><path d="M 847.640625 85.675781 L 1009.105469 85.675781 C 1018.632812 85.675781 1026.355469 93.398438 1026.355469 102.925781 L 1026.355469 276.863281 C 1026.355469 286.390625 1018.632812 294.113281 1009.105469 294.113281 L 847.640625 294.113281 C 838.113281 294.113281 830.390625 286.390625 830.390625 276.863281 L 830.390625 102.925781 C 830.390625 93.398438 838.113281 85.675781 847.640625 85.675781 Z M 847.640625 85.675781 " clip-rule="nonzero"/></clipPath></defs><rect x="-112.5" width="1350" fill="#ffffff" y="-37.499999" height="449.999989" fill-opacity="1"/><rect x="-112.5" fill="url(#5f250b4f36)" width="1350" y="-37.499999" height="449.999989"/><path fill="#13147f" d="M 826.027344 175.132812 L 903.636719 253.242188 L 986.605469 253.242188 L 1031.621094 208.230469 L 1303.15625 208.230469 L 1303.15625 210.78125 L 1032.671875 210.78125 L 987.65625 255.796875 L 902.585938 255.796875 L 824.226562 176.933594 Z M 826.027344 175.132812 " fill-opacity="1" fill-rule="nonzero"/><path fill="#13147f" d="M 772.703125 175.132812 L 825.277344 227.757812 L 825.277344 253.992188 L 881.757812 310.472656 L 1027.914062 310.472656 L 1060.859375 277.527344 L 1398.492188 277.527344 L 1398.492188 280.082031 L 1061.960938 280.082031 L 1029.015625 313.027344 L 880.707031 313.027344 L 880.355469 312.628906 L 822.722656 255.046875 L 822.722656 228.808594 L 770.898438 176.933594 Z M 772.703125 175.132812 " fill-opacity="1" fill-rule="nonzero"/><path fill="#13147f" d="M 1053.953125 245.230469 L 1524.371094 245.230469 L 1548.054688 268.914062 L 1546.25 270.71875 L 1523.316406 247.785156 L 1055.003906 247.785156 L 1009.636719 293.097656 L 899.132812 293.097656 L 899.132812 290.546875 L 1008.585938 290.546875 Z M 1053.953125 245.230469 " fill-opacity="1" fill-rule="nonzero"/><path fill="#13147f" d="M 1079.386719 307.671875 C 1079.9375 307.671875 1080.289062 307.871094 1080.589844 308.070312 C 1088.699219 310.574219 1277.96875 308.773438 1350.472656 307.871094 L 1350.523438 310.425781 C 1349.871094 310.425781 1282.925781 311.273438 1216.433594 311.675781 C 1092.457031 312.425781 1080.988281 311.175781 1079.238281 310.273438 C 1074.882812 311.175781 1050.648438 338.164062 1040.230469 349.730469 C 1036.175781 354.234375 1033.222656 357.539062 1032.019531 358.742188 C 1030.617188 360.144531 1026.914062 363.851562 896.726562 359.292969 C 893.523438 359.191406 891.371094 359.09375 891.121094 359.09375 L 891.121094 356.539062 C 891.421875 356.539062 893.121094 356.589844 896.828125 356.738281 C 1012.242188 360.796875 1028.566406 358.191406 1030.269531 356.890625 C 1031.417969 355.738281 1034.523438 352.285156 1038.378906 347.976562 C 1061.210938 322.492188 1075.230469 307.769531 1079.335938 307.621094 C 1079.335938 307.671875 1079.386719 307.671875 1079.386719 307.671875 Z M 1079.386719 307.671875 " fill-opacity="1" fill-rule="nonzero"/><path fill="#13147f" d="M 810.707031 310.824219 L 878.402344 378.519531 L 1050.597656 378.519531 C 1052.398438 376.46875 1060.261719 367.65625 1068.472656 358.941406 C 1087.648438 338.5625 1090.003906 338.5625 1091.152344 338.5625 L 1240.464844 338.5625 L 1240.464844 341.117188 L 1091.105469 341.117188 C 1088.148438 341.566406 1068.921875 361.597656 1052.097656 380.671875 L 1051.699219 381.125 L 877.300781 381.125 L 808.851562 312.675781 Z M 810.707031 310.824219 " fill-opacity="1" fill-rule="nonzero"/><path fill="#13147f" d="M 542.425781 192.554688 L 735.648438 192.554688 L 786.773438 243.679688 L 786.773438 323.292969 L 875.847656 412.367188 L 1099.816406 412.367188 L 1099.816406 414.972656 L 874.746094 414.972656 L 874.394531 414.570312 L 784.21875 324.394531 L 784.21875 244.730469 L 734.597656 195.109375 L 542.425781 195.109375 Z M 542.425781 192.554688 " fill-opacity="1" fill-rule="nonzero"/><path fill="#13147f" d="M 542.425781 253.242188 L 675.613281 253.242188 L 702.402344 279.980469 L 702.402344 345.222656 L 846.15625 488.976562 L 846.15625 584.011719 L 929.925781 667.730469 L 928.074219 669.585938 L 843.601562 585.0625 L 843.601562 490.027344 L 699.847656 346.273438 L 699.847656 281.03125 L 674.5625 255.796875 L 542.425781 255.796875 Z M 542.425781 253.242188 " fill-opacity="1" fill-rule="nonzero"/><path fill="#5852f2" d="M 542.425781 224.101562 L 706.308594 224.101562 L 741.40625 259.203125 L 741.40625 330.402344 L 855.417969 444.464844 L 1007.535156 444.464844 L 1044.589844 481.46875 L 1153.394531 481.46875 L 1153.394531 488.125 L 1041.835938 488.125 L 1004.78125 451.125 L 852.664062 451.125 L 734.75 333.15625 L 734.75 261.957031 L 703.554688 230.761719 L 542.425781 230.761719 Z M 542.425781 224.101562 " fill-opacity="1" fill-rule="nonzero"/><path fill="#13147f" d="M 883.558594 359.542969 C 883.558594 359.046875 883.609375 358.554688 883.703125 358.070312 C 883.800781 357.582031 883.945312 357.109375 884.136719 356.652344 C 884.324219 356.191406 884.558594 355.757812 884.832031 355.34375 C 885.109375 354.929688 885.421875 354.546875 885.773438 354.199219 C 886.125 353.847656 886.507812 353.53125 886.917969 353.257812 C 887.332031 352.980469 887.769531 352.75 888.226562 352.558594 C 888.6875 352.367188 889.160156 352.226562 889.644531 352.128906 C 890.132812 352.03125 890.625 351.984375 891.121094 351.984375 C 891.617188 351.984375 892.109375 352.03125 892.59375 352.128906 C 893.082031 352.226562 893.554688 352.367188 894.011719 352.558594 C 894.472656 352.75 894.90625 352.980469 895.320312 353.257812 C 895.734375 353.53125 896.117188 353.847656 896.464844 354.199219 C 896.816406 354.546875 897.132812 354.929688 897.40625 355.34375 C 897.683594 355.757812 897.914062 356.191406 898.105469 356.652344 C 898.296875 357.109375 898.4375 357.582031 898.535156 358.070312 C 898.632812 358.554688 898.679688 359.046875 898.679688 359.542969 C 898.679688 360.039062 898.632812 360.53125 898.535156 361.019531 C 898.4375 361.503906 898.296875 361.976562 898.105469 362.4375 C 897.914062 362.894531 897.683594 363.332031 897.40625 363.746094 C 897.132812 364.15625 896.816406 364.539062 896.464844 364.890625 C 896.117188 365.242188 895.734375 365.554688 895.320312 365.832031 C 894.90625 366.105469 894.472656 366.339844 894.011719 366.527344 C 893.554688 366.71875 893.082031 366.863281 892.59375 366.960938 C 892.109375 367.054688 891.617188 367.105469 891.121094 367.105469 C 890.625 367.105469 890.132812 367.054688 889.644531 366.960938 C 889.160156 366.863281 888.6875 366.71875 888.226562 366.527344 C 887.769531 366.339844 887.332031 366.105469 886.917969 365.832031 C 886.507812 365.554688 886.125 365.242188 885.773438 364.890625 C 885.421875 364.539062 885.109375 364.15625 884.832031 363.746094 C 884.558594 363.332031 884.324219 362.894531 884.136719 362.4375 C 883.945312 361.976562 883.800781 361.503906 883.703125 361.019531 C 883.609375 360.53125 883.558594 360.039062 883.558594 359.542969 Z M 883.558594 359.542969 " fill-opacity="1" fill-rule="nonzero"/><path fill="#13147f" d="M 801.34375 310.824219 C 801.34375 310.328125 801.390625 309.835938 801.488281 309.347656 C 801.585938 308.863281 801.726562 308.390625 801.917969 307.929688 C 802.109375 307.472656 802.339844 307.035156 802.617188 306.625 C 802.894531 306.210938 803.207031 305.828125 803.558594 305.476562 C 803.910156 305.128906 804.289062 304.8125 804.703125 304.539062 C 805.117188 304.261719 805.550781 304.03125 806.011719 303.839844 C 806.46875 303.648438 806.941406 303.507812 807.429688 303.410156 C 807.914062 303.3125 808.40625 303.265625 808.902344 303.265625 C 809.398438 303.265625 809.890625 303.3125 810.378906 303.410156 C 810.867188 303.507812 811.339844 303.648438 811.796875 303.839844 C 812.253906 304.03125 812.691406 304.261719 813.105469 304.539062 C 813.515625 304.8125 813.898438 305.128906 814.25 305.476562 C 814.601562 305.828125 814.914062 306.210938 815.191406 306.625 C 815.464844 307.035156 815.699219 307.472656 815.886719 307.929688 C 816.078125 308.390625 816.222656 308.863281 816.320312 309.347656 C 816.414062 309.835938 816.464844 310.328125 816.464844 310.824219 C 816.464844 311.320312 816.414062 311.8125 816.320312 312.300781 C 816.222656 312.785156 816.078125 313.257812 815.886719 313.71875 C 815.699219 314.175781 815.464844 314.613281 815.191406 315.023438 C 814.914062 315.4375 814.601562 315.820312 814.25 316.171875 C 813.898438 316.523438 813.515625 316.835938 813.105469 317.109375 C 812.691406 317.386719 812.253906 317.621094 811.796875 317.808594 C 811.339844 318 810.867188 318.144531 810.378906 318.238281 C 809.890625 318.335938 809.398438 318.386719 808.902344 318.386719 C 808.40625 318.386719 807.914062 318.335938 807.429688 318.238281 C 806.941406 318.144531 806.46875 318 806.011719 317.808594 C 805.550781 317.621094 805.117188 317.386719 804.703125 317.109375 C 804.289062 316.835938 803.910156 316.523438 803.558594 316.171875 C 803.207031 315.820312 802.894531 315.4375 802.617188 315.023438 C 802.339844 314.613281 802.109375 314.175781 801.917969 313.71875 C 801.726562 313.257812 801.585938 312.785156 801.488281 312.300781 C 801.390625 311.8125 801.34375 311.320312 801.34375 310.824219 Z M 801.34375 310.824219 " fill-opacity="1" fill-rule="nonzero"/><path fill="#13147f" d="M 891.121094 291.496094 C 891.121094 291 891.167969 290.507812 891.265625 290.023438 C 891.363281 289.535156 891.503906 289.0625 891.695312 288.605469 C 891.886719 288.144531 892.117188 287.710938 892.394531 287.296875 C 892.671875 286.882812 892.984375 286.5 893.335938 286.152344 C 893.6875 285.800781 894.066406 285.488281 894.480469 285.210938 C 894.894531 284.933594 895.328125 284.703125 895.789062 284.511719 C 896.246094 284.320312 896.71875 284.179688 897.207031 284.082031 C 897.691406 283.984375 898.183594 283.9375 898.679688 283.9375 C 899.175781 283.9375 899.667969 283.984375 900.15625 284.082031 C 900.644531 284.179688 901.117188 284.320312 901.574219 284.511719 C 902.03125 284.703125 902.46875 284.933594 902.882812 285.210938 C 903.292969 285.488281 903.675781 285.800781 904.027344 286.152344 C 904.378906 286.5 904.691406 286.882812 904.96875 287.296875 C 905.242188 287.710938 905.476562 288.144531 905.667969 288.605469 C 905.855469 289.0625 906 289.535156 906.097656 290.023438 C 906.191406 290.507812 906.242188 291 906.242188 291.496094 C 906.242188 291.992188 906.191406 292.484375 906.097656 292.972656 C 906 293.460938 905.855469 293.933594 905.667969 294.390625 C 905.476562 294.847656 905.242188 295.285156 904.96875 295.699219 C 904.691406 296.109375 904.378906 296.492188 904.027344 296.84375 C 903.675781 297.195312 903.292969 297.507812 902.882812 297.785156 C 902.46875 298.058594 902.03125 298.292969 901.574219 298.480469 C 901.117188 298.671875 900.644531 298.816406 900.15625 298.914062 C 899.667969 299.007812 899.175781 299.058594 898.679688 299.058594 C 898.183594 299.058594 897.691406 299.007812 897.207031 298.914062 C 896.71875 298.816406 896.246094 298.671875 895.789062 298.480469 C 895.328125 298.292969 894.894531 298.058594 894.480469 297.785156 C 894.066406 297.507812 893.6875 297.195312 893.335938 296.84375 C 892.984375 296.492188 892.671875 296.109375 892.394531 295.699219 C 892.117188 295.285156 891.886719 294.847656 891.695312 294.390625 C 891.503906 293.933594 891.363281 293.460938 891.265625 292.972656 C 891.167969 292.484375 891.121094 291.992188 891.121094 291.496094 Z M 891.121094 291.496094 " fill-opacity="1" fill-rule="nonzero"/><g clip-path="url(#210af7ffc9)"><path fill="#13147f" d="M 302.882812 105.832031 C 302.882812 105.335938 302.933594 104.84375 303.03125 104.359375 C 303.128906 103.871094 303.269531 103.398438 303.460938 102.941406 C 303.652344 102.480469 303.882812 102.046875 304.160156 101.632812 C 304.433594 101.21875 304.75 100.839844 305.097656 100.488281 C 305.449219 100.136719 305.832031 99.824219 306.246094 99.546875 C 306.65625 99.269531 307.09375 99.039062 307.550781 98.847656 C 308.011719 98.660156 308.484375 98.515625 308.96875 98.417969 C 309.457031 98.320312 309.949219 98.273438 310.445312 98.273438 C 310.941406 98.273438 311.433594 98.320312 311.921875 98.417969 C 312.40625 98.515625 312.878906 98.660156 313.339844 98.847656 C 313.796875 99.039062 314.234375 99.269531 314.644531 99.546875 C 315.058594 99.824219 315.441406 100.136719 315.792969 100.488281 C 316.144531 100.839844 316.457031 101.21875 316.730469 101.632812 C 317.007812 102.046875 317.242188 102.480469 317.429688 102.941406 C 317.621094 103.398438 317.765625 103.871094 317.859375 104.359375 C 317.957031 104.84375 318.007812 105.335938 318.007812 105.832031 C 318.007812 106.328125 317.957031 106.820312 317.859375 107.308594 C 317.765625 107.796875 317.621094 108.269531 317.429688 108.726562 C 317.242188 109.1875 317.007812 109.621094 316.730469 110.035156 C 316.457031 110.445312 316.144531 110.828125 315.792969 111.179688 C 315.441406 111.53125 315.058594 111.84375 314.644531 112.121094 C 314.234375 112.394531 313.796875 112.628906 313.339844 112.820312 C 312.878906 113.007812 312.40625 113.152344 311.921875 113.25 C 311.433594 113.347656 310.941406 113.394531 310.445312 113.394531 C 309.949219 113.394531 309.457031 113.347656 308.96875 113.25 C 308.484375 113.152344 308.011719 113.007812 307.550781 112.820312 C 307.09375 112.628906 306.65625 112.394531 306.246094 112.121094 C 305.832031 111.84375 305.449219 111.53125 305.097656 111.179688 C 304.75 110.828125 304.433594 110.445312 304.160156 110.035156 C 303.882812 109.621094 303.652344 109.1875 303.460938 108.726562 C 303.269531 108.269531 303.125 107.796875 303.03125 107.308594 C 302.933594 106.820312 302.882812 106.328125 302.882812 105.832031 Z M 302.882812 105.832031 " fill-opacity="1" fill-rule="nonzero"/></g><path fill="#13147f" d="M 450.644531 96.269531 C 450.644531 95.773438 450.691406 95.28125 450.789062 94.796875 C 450.886719 94.308594 451.03125 93.835938 451.21875 93.375 C 451.410156 92.917969 451.644531 92.480469 451.917969 92.070312 C 452.195312 91.65625 452.507812 91.273438 452.859375 90.921875 C 453.210938 90.574219 453.59375 90.257812 454.003906 89.984375 C 454.417969 89.707031 454.855469 89.476562 455.3125 89.285156 C 455.769531 89.09375 456.242188 88.953125 456.730469 88.855469 C 457.21875 88.757812 457.707031 88.710938 458.207031 88.710938 C 458.703125 88.710938 459.195312 88.757812 459.679688 88.855469 C 460.167969 88.953125 460.640625 89.09375 461.097656 89.285156 C 461.558594 89.476562 461.992188 89.707031 462.40625 89.984375 C 462.820312 90.257812 463.199219 90.574219 463.550781 90.921875 C 463.902344 91.273438 464.214844 91.65625 464.492188 92.070312 C 464.769531 92.480469 465 92.917969 465.191406 93.375 C 465.378906 93.835938 465.523438 94.308594 465.621094 94.796875 C 465.71875 95.28125 465.765625 95.773438 465.765625 96.269531 C 465.765625 96.765625 465.71875 97.257812 465.621094 97.746094 C 465.523438 98.230469 465.378906 98.703125 465.191406 99.164062 C 465 99.621094 464.769531 100.058594 464.492188 100.46875 C 464.214844 100.882812 463.902344 101.265625 463.550781 101.617188 C 463.199219 101.96875 462.820312 102.28125 462.40625 102.554688 C 461.992188 102.832031 461.558594 103.066406 461.097656 103.253906 C 460.640625 103.445312 460.167969 103.589844 459.679688 103.683594 C 459.195312 103.78125 458.703125 103.832031 458.207031 103.832031 C 457.707031 103.832031 457.21875 103.78125 456.730469 103.683594 C 456.242188 103.589844 455.769531 103.445312 455.3125 103.253906 C 454.855469 103.066406 454.417969 102.832031 454.003906 102.554688 C 453.59375 102.28125 453.210938 101.96875 452.859375 101.617188 C 452.507812 101.265625 452.195312 100.882812 451.917969 100.46875 C 451.644531 100.058594 451.410156 99.621094 451.21875 99.164062 C 451.03125 98.703125 450.886719 98.230469 450.789062 97.746094 C 450.691406 97.257812 450.644531 96.765625 450.644531 96.269531 Z M 450.644531 96.269531 " fill-opacity="1" fill-rule="nonzero"/><path fill="#13147f" d="M 498.664062 67.328125 C 498.664062 66.832031 498.710938 66.339844 498.808594 65.855469 C 498.90625 65.367188 499.046875 64.894531 499.238281 64.4375 C 499.429688 63.976562 499.660156 63.542969 499.9375 63.128906 C 500.214844 62.714844 500.527344 62.332031 500.878906 61.984375 C 501.226562 61.632812 501.609375 61.316406 502.023438 61.042969 C 502.4375 60.765625 502.871094 60.535156 503.332031 60.34375 C 503.789062 60.152344 504.261719 60.011719 504.75 59.914062 C 505.234375 59.816406 505.726562 59.769531 506.222656 59.769531 C 506.71875 59.769531 507.210938 59.816406 507.699219 59.914062 C 508.1875 60.011719 508.660156 60.152344 509.117188 60.34375 C 509.574219 60.535156 510.011719 60.765625 510.425781 61.042969 C 510.835938 61.316406 511.21875 61.632812 511.570312 61.984375 C 511.921875 62.332031 512.234375 62.714844 512.511719 63.128906 C 512.785156 63.542969 513.019531 63.976562 513.207031 64.433594 C 513.398438 64.894531 513.542969 65.367188 513.640625 65.855469 C 513.734375 66.339844 513.785156 66.832031 513.785156 67.328125 C 513.785156 67.824219 513.734375 68.316406 513.640625 68.804688 C 513.542969 69.289062 513.398438 69.761719 513.207031 70.222656 C 513.019531 70.679688 512.785156 71.117188 512.511719 71.53125 C 512.234375 71.941406 511.921875 72.324219 511.570312 72.675781 C 511.21875 73.027344 510.835938 73.339844 510.425781 73.617188 C 510.011719 73.890625 509.574219 74.125 509.117188 74.3125 C 508.660156 74.503906 508.183594 74.648438 507.699219 74.746094 C 507.210938 74.839844 506.71875 74.890625 506.222656 74.890625 C 505.726562 74.890625 505.234375 74.839844 504.75 74.746094 C 504.261719 74.648438 503.789062 74.503906 503.332031 74.3125 C 502.871094 74.125 502.4375 73.890625 502.023438 73.617188 C 501.609375 73.339844 501.226562 73.027344 500.878906 72.675781 C 500.527344 72.324219 500.210938 71.941406 499.9375 71.53125 C 499.660156 71.117188 499.429688 70.679688 499.238281 70.222656 C 499.046875 69.761719 498.90625 69.289062 498.808594 68.804688 C 498.710938 68.316406 498.664062 67.824219 498.664062 67.328125 Z M 498.664062 67.328125 " fill-opacity="1" fill-rule="nonzero"/><path fill="#13147f" d="M 546.03125 164.417969 C 546.03125 163.921875 546.078125 163.429688 546.175781 162.941406 C 546.273438 162.453125 546.414062 161.980469 546.605469 161.523438 C 546.796875 161.066406 547.027344 160.628906 547.304688 160.214844 C 547.582031 159.804688 547.894531 159.421875 548.246094 159.070312 C 548.597656 158.71875 548.976562 158.40625 549.390625 158.128906 C 549.804688 157.855469 550.238281 157.621094 550.699219 157.429688 C 551.15625 157.242188 551.628906 157.097656 552.117188 157 C 552.601562 156.90625 553.09375 156.855469 553.589844 156.855469 C 554.085938 156.855469 554.578125 156.90625 555.066406 157 C 555.554688 157.097656 556.027344 157.242188 556.484375 157.429688 C 556.941406 157.621094 557.378906 157.855469 557.792969 158.128906 C 558.203125 158.40625 558.585938 158.71875 558.9375 159.070312 C 559.289062 159.421875 559.601562 159.804688 559.878906 160.214844 C 560.152344 160.628906 560.386719 161.066406 560.574219 161.523438 C 560.765625 161.980469 560.910156 162.453125 561.007812 162.941406 C 561.101562 163.429688 561.152344 163.921875 561.152344 164.417969 C 561.152344 164.914062 561.101562 165.40625 561.007812 165.890625 C 560.910156 166.378906 560.765625 166.851562 560.574219 167.308594 C 560.386719 167.769531 560.152344 168.203125 559.878906 168.617188 C 559.601562 169.03125 559.289062 169.410156 558.9375 169.761719 C 558.585938 170.113281 558.203125 170.425781 557.792969 170.703125 C 557.378906 170.980469 556.941406 171.210938 556.484375 171.402344 C 556.027344 171.59375 555.554688 171.734375 555.066406 171.832031 C 554.578125 171.929688 554.085938 171.976562 553.589844 171.976562 C 553.09375 171.976562 552.601562 171.929688 552.117188 171.832031 C 551.628906 171.734375 551.15625 171.59375 550.699219 171.402344 C 550.238281 171.210938 549.804688 170.980469 549.390625 170.703125 C 548.976562 170.425781 548.597656 170.113281 548.246094 169.761719 C 547.894531 169.410156 547.582031 169.03125 547.304688 168.617188 C 547.027344 168.203125 546.796875 167.769531 546.605469 167.308594 C 546.414062 166.851562 546.273438 166.378906 546.175781 165.890625 C 546.078125 165.40625 546.03125 164.914062 546.03125 164.417969 Z M 546.03125 164.417969 " fill-opacity="1" fill-rule="nonzero"/><path fill="#13147f" d="M 611.121094 36.636719 C 611.121094 36.140625 611.171875 35.648438 611.269531 35.160156 C 611.363281 34.671875 611.507812 34.199219 611.699219 33.742188 C 611.886719 33.285156 612.121094 32.847656 612.398438 32.433594 C 612.671875 32.023438 612.984375 31.640625 613.335938 31.289062 C 613.6875 30.9375 614.070312 30.625 614.484375 30.347656 C 614.894531 30.074219 615.332031 29.839844 615.789062 29.648438 C 616.25 29.460938 616.722656 29.316406 617.207031 29.21875 C 617.695312 29.121094 618.1875 29.074219 618.683594 29.074219 C 619.179688 29.074219 619.671875 29.121094 620.160156 29.21875 C 620.644531 29.316406 621.117188 29.460938 621.578125 29.648438 C 622.035156 29.839844 622.472656 30.074219 622.882812 30.347656 C 623.296875 30.625 623.679688 30.9375 624.03125 31.289062 C 624.378906 31.640625 624.695312 32.023438 624.96875 32.433594 C 625.246094 32.847656 625.480469 33.285156 625.667969 33.742188 C 625.859375 34.199219 626.003906 34.671875 626.097656 35.160156 C 626.195312 35.648438 626.242188 36.140625 626.242188 36.636719 C 626.242188 37.132812 626.195312 37.625 626.097656 38.109375 C 626.003906 38.597656 625.859375 39.070312 625.667969 39.527344 C 625.480469 39.988281 625.246094 40.421875 624.96875 40.835938 C 624.695312 41.25 624.378906 41.628906 624.03125 41.980469 C 623.679688 42.332031 623.296875 42.644531 622.882812 42.921875 C 622.472656 43.199219 622.035156 43.429688 621.578125 43.621094 C 621.117188 43.808594 620.644531 43.953125 620.160156 44.050781 C 619.671875 44.148438 619.179688 44.195312 618.683594 44.195312 C 618.1875 44.195312 617.695312 44.148438 617.207031 44.050781 C 616.722656 43.953125 616.25 43.808594 615.789062 43.621094 C 615.332031 43.429688 614.894531 43.199219 614.484375 42.921875 C 614.070312 42.644531 613.6875 42.332031 613.335938 41.980469 C 612.984375 41.628906 612.671875 41.25 612.398438 40.835938 C 612.121094 40.421875 611.886719 39.988281 611.699219 39.527344 C 611.507812 39.070312 611.363281 38.597656 611.269531 38.109375 C 611.171875 37.625 611.121094 37.132812 611.121094 36.636719 Z M 611.121094 36.636719 " fill-opacity="1" fill-rule="nonzero"/><path fill="#13147f" d="M 1030.71875 199.867188 L 953.058594 121.804688 L 870.140625 121.804688 L 825.125 166.769531 L 553.589844 166.769531 L 553.589844 164.214844 L 824.074219 164.214844 L 869.039062 119.253906 L 954.109375 119.253906 L 1032.519531 198.0625 Z M 1030.71875 199.867188 " fill-opacity="1" fill-rule="nonzero"/><path fill="#13147f" d="M 1084.042969 199.867188 L 1031.417969 147.292969 L 1031.417969 121.054688 L 974.9375 64.574219 L 828.78125 64.574219 L 795.835938 97.523438 L 458.207031 97.523438 L 458.207031 94.96875 L 794.785156 94.96875 L 827.730469 62.019531 L 975.992188 62.019531 L 976.390625 62.371094 L 1033.972656 120.003906 L 1033.972656 146.191406 L 1085.847656 198.0625 Z M 1084.042969 199.867188 " fill-opacity="1" fill-rule="nonzero"/><path fill="#13147f" d="M 802.792969 129.765625 L 332.375 129.765625 L 308.644531 106.082031 L 310.445312 104.28125 L 333.429688 127.214844 L 801.742188 127.214844 L 847.058594 81.898438 L 957.613281 81.898438 L 957.613281 84.453125 L 848.109375 84.453125 Z M 802.792969 129.765625 " fill-opacity="1" fill-rule="nonzero"/><path fill="#13147f" d="M 777.308594 67.328125 C 776.757812 67.328125 776.40625 67.128906 776.105469 66.929688 C 767.996094 64.425781 578.726562 66.226562 506.222656 67.128906 L 506.171875 64.574219 C 506.824219 64.574219 573.769531 63.722656 640.265625 63.324219 C 764.238281 62.570312 775.707031 63.824219 777.457031 64.726562 C 781.816406 63.824219 806.050781 36.835938 816.464844 25.269531 C 820.519531 20.761719 823.472656 17.457031 824.675781 16.257812 C 826.078125 14.855469 829.78125 11.148438 959.96875 15.707031 C 963.171875 15.804688 965.324219 15.90625 965.574219 15.90625 L 965.574219 18.460938 C 965.273438 18.460938 963.574219 18.410156 959.867188 18.257812 C 844.453125 14.203125 828.128906 16.808594 826.429688 18.109375 C 825.277344 19.261719 822.171875 22.714844 818.316406 27.023438 C 795.484375 52.507812 781.464844 67.230469 777.359375 67.378906 C 777.359375 67.328125 777.359375 67.328125 777.308594 67.328125 Z M 777.308594 67.328125 " fill-opacity="1" fill-rule="nonzero"/><path fill="#13147f" d="M 1046.039062 64.175781 L 978.34375 -3.523438 L 806.148438 -3.523438 C 804.347656 -1.46875 796.484375 7.34375 788.273438 16.054688 C 769.097656 36.433594 766.742188 36.433594 765.59375 36.433594 L 616.230469 36.433594 L 616.230469 33.882812 L 765.59375 33.882812 C 768.546875 33.429688 787.773438 13.402344 804.597656 -5.675781 L 804.996094 -6.125 L 979.394531 -6.125 L 1047.84375 62.371094 Z M 1046.039062 64.175781 " fill-opacity="1" fill-rule="nonzero"/><path fill="#13147f" d="M 1314.269531 182.441406 L 1121.097656 182.441406 L 1069.972656 131.371094 L 1069.972656 51.707031 L 980.898438 -37.371094 L 756.929688 -37.371094 L 756.929688 -39.921875 L 981.949219 -39.921875 L 982.300781 -39.574219 L 1072.527344 50.65625 L 1072.527344 130.269531 L 1122.148438 179.886719 L 1314.269531 179.886719 Z M 1314.269531 182.441406 " fill-opacity="1" fill-rule="nonzero"/><path fill="#13147f" d="M 1314.269531 121.804688 L 1181.082031 121.804688 L 1154.34375 95.019531 L 1154.34375 29.777344 L 1010.589844 -113.980469 L 1010.589844 -208.964844 L 926.820312 -292.734375 L 928.625 -294.535156 L 1013.144531 -210.066406 L 1013.144531 -115.03125 L 1156.898438 28.722656 L 1156.898438 93.964844 L 1182.132812 119.253906 L 1314.269531 119.253906 Z M 1314.269531 121.804688 " fill-opacity="1" fill-rule="nonzero"/><path fill="#5852f2" d="M 1314.269531 150.898438 L 1150.4375 150.898438 L 1115.339844 115.847656 L 1115.339844 44.597656 L 1001.328125 -69.464844 L 849.160156 -69.464844 L 812.15625 -106.46875 L 703.351562 -106.46875 L 703.351562 -113.128906 L 814.910156 -113.128906 L 851.914062 -76.074219 L 1004.03125 -76.074219 L 1121.996094 41.84375 L 1121.996094 113.09375 L 1153.191406 144.289062 L 1314.269531 144.289062 Z M 1314.269531 150.898438 " fill-opacity="1" fill-rule="nonzero"/><path fill="#13147f" d="M 958.015625 15.503906 C 958.015625 15.007812 958.0625 14.515625 958.160156 14.03125 C 958.257812 13.542969 958.402344 13.070312 958.589844 12.613281 C 958.78125 12.152344 959.015625 11.71875 959.289062 11.304688 C 959.566406 10.890625 959.878906 10.511719 960.230469 10.160156 C 960.582031 9.808594 960.960938 9.496094 961.375 9.21875 C 961.789062 8.941406 962.222656 8.710938 962.683594 8.519531 C 963.140625 8.332031 963.613281 8.1875 964.101562 8.089844 C 964.585938 7.992188 965.078125 7.945312 965.574219 7.945312 C 966.074219 7.945312 966.5625 7.992188 967.050781 8.089844 C 967.539062 8.1875 968.011719 8.332031 968.46875 8.519531 C 968.929688 8.710938 969.363281 8.941406 969.777344 9.21875 C 970.1875 9.496094 970.570312 9.808594 970.921875 10.160156 C 971.273438 10.511719 971.585938 10.890625 971.863281 11.304688 C 972.136719 11.71875 972.371094 12.152344 972.5625 12.613281 C 972.75 13.070312 972.894531 13.542969 972.992188 14.03125 C 973.089844 14.515625 973.136719 15.007812 973.136719 15.503906 C 973.136719 16 973.089844 16.492188 972.992188 16.980469 C 972.894531 17.46875 972.75 17.941406 972.5625 18.398438 C 972.371094 18.859375 972.136719 19.292969 971.863281 19.707031 C 971.585938 20.117188 971.273438 20.5 970.921875 20.851562 C 970.570312 21.203125 970.1875 21.515625 969.777344 21.792969 C 969.363281 22.066406 968.929688 22.300781 968.46875 22.492188 C 968.011719 22.679688 967.539062 22.824219 967.050781 22.921875 C 966.5625 23.015625 966.074219 23.066406 965.574219 23.066406 C 965.078125 23.066406 964.585938 23.015625 964.101562 22.921875 C 963.613281 22.824219 963.140625 22.679688 962.683594 22.492188 C 962.222656 22.300781 961.789062 22.066406 961.375 21.792969 C 960.960938 21.515625 960.582031 21.203125 960.230469 20.851562 C 959.878906 20.5 959.566406 20.117188 959.289062 19.707031 C 959.015625 19.292969 958.78125 18.855469 958.589844 18.398438 C 958.402344 17.941406 958.257812 17.46875 958.160156 16.980469 C 958.0625 16.492188 958.015625 16 958.015625 15.503906 Z M 958.015625 15.503906 " fill-opacity="1" fill-rule="nonzero"/><path fill="#13147f" d="M 1040.28125 64.175781 C 1040.28125 63.679688 1040.332031 63.1875 1040.425781 62.699219 C 1040.523438 62.210938 1040.667969 61.738281 1040.859375 61.28125 C 1041.046875 60.824219 1041.28125 60.386719 1041.554688 59.972656 C 1041.832031 59.5625 1042.144531 59.179688 1042.496094 58.828125 C 1042.847656 58.476562 1043.230469 58.164062 1043.640625 57.886719 C 1044.054688 57.613281 1044.492188 57.378906 1044.949219 57.1875 C 1045.40625 57 1045.878906 56.855469 1046.367188 56.757812 C 1046.855469 56.660156 1047.347656 56.613281 1047.84375 56.613281 C 1048.339844 56.613281 1048.832031 56.660156 1049.316406 56.757812 C 1049.804688 56.855469 1050.277344 57 1050.734375 57.1875 C 1051.195312 57.378906 1051.628906 57.613281 1052.042969 57.886719 C 1052.457031 58.164062 1052.839844 58.476562 1053.1875 58.828125 C 1053.539062 59.179688 1053.851562 59.5625 1054.128906 59.972656 C 1054.40625 60.386719 1054.636719 60.824219 1054.828125 61.28125 C 1055.019531 61.738281 1055.160156 62.210938 1055.257812 62.699219 C 1055.355469 63.1875 1055.402344 63.679688 1055.402344 64.175781 C 1055.402344 64.671875 1055.355469 65.164062 1055.257812 65.648438 C 1055.160156 66.136719 1055.019531 66.609375 1054.828125 67.066406 C 1054.636719 67.527344 1054.40625 67.960938 1054.128906 68.375 C 1053.851562 68.789062 1053.539062 69.167969 1053.1875 69.519531 C 1052.839844 69.871094 1052.457031 70.183594 1052.042969 70.460938 C 1051.628906 70.738281 1051.195312 70.96875 1050.734375 71.160156 C 1050.277344 71.347656 1049.804688 71.492188 1049.316406 71.589844 C 1048.832031 71.6875 1048.339844 71.734375 1047.84375 71.734375 C 1047.347656 71.734375 1046.855469 71.6875 1046.367188 71.589844 C 1045.878906 71.492188 1045.40625 71.347656 1044.949219 71.160156 C 1044.492188 70.96875 1044.054688 70.738281 1043.640625 70.460938 C 1043.230469 70.183594 1042.847656 69.871094 1042.496094 69.519531 C 1042.144531 69.167969 1041.832031 68.789062 1041.554688 68.375 C 1041.28125 67.960938 1041.046875 67.527344 1040.859375 67.066406 C 1040.667969 66.609375 1040.523438 66.136719 1040.425781 65.648438 C 1040.332031 65.164062 1040.28125 64.671875 1040.28125 64.175781 Z M 1040.28125 64.175781 " fill-opacity="1" fill-rule="nonzero"/><path fill="#13147f" d="M 950.453125 83.5 C 950.453125 83.003906 950.503906 82.515625 950.601562 82.027344 C 950.695312 81.539062 950.839844 81.066406 951.03125 80.609375 C 951.21875 80.148438 951.453125 79.714844 951.730469 79.300781 C 952.003906 78.886719 952.316406 78.507812 952.667969 78.15625 C 953.019531 77.804688 953.402344 77.492188 953.816406 77.214844 C 954.226562 76.941406 954.664062 76.707031 955.121094 76.515625 C 955.582031 76.328125 956.054688 76.183594 956.539062 76.085938 C 957.027344 75.988281 957.519531 75.941406 958.015625 75.941406 C 958.511719 75.941406 959.003906 75.988281 959.488281 76.085938 C 959.976562 76.183594 960.449219 76.328125 960.910156 76.515625 C 961.367188 76.707031 961.804688 76.941406 962.214844 77.214844 C 962.628906 77.492188 963.011719 77.804688 963.363281 78.15625 C 963.710938 78.507812 964.027344 78.886719 964.300781 79.300781 C 964.578125 79.714844 964.808594 80.148438 965 80.609375 C 965.191406 81.066406 965.332031 81.539062 965.429688 82.027344 C 965.527344 82.511719 965.574219 83.003906 965.574219 83.5 C 965.574219 84 965.527344 84.488281 965.429688 84.976562 C 965.332031 85.464844 965.191406 85.9375 965 86.394531 C 964.808594 86.855469 964.578125 87.289062 964.300781 87.703125 C 964.027344 88.113281 963.710938 88.496094 963.363281 88.847656 C 963.011719 89.199219 962.628906 89.511719 962.214844 89.789062 C 961.804688 90.0625 961.367188 90.296875 960.910156 90.488281 C 960.449219 90.675781 959.976562 90.820312 959.492188 90.917969 C 959.003906 91.015625 958.511719 91.0625 958.015625 91.0625 C 957.519531 91.0625 957.027344 91.015625 956.539062 90.917969 C 956.054688 90.820312 955.582031 90.675781 955.121094 90.488281 C 954.664062 90.296875 954.226562 90.0625 953.816406 89.789062 C 953.402344 89.511719 953.019531 89.199219 952.667969 88.847656 C 952.316406 88.496094 952.003906 88.113281 951.730469 87.703125 C 951.453125 87.289062 951.21875 86.855469 951.03125 86.394531 C 950.839844 85.9375 950.695312 85.464844 950.601562 84.976562 C 950.503906 84.488281 950.453125 84 950.453125 83.5 Z M 950.453125 83.5 " fill-opacity="1" fill-rule="nonzero"/><path fill="#5852f2" d="M 846.957031 170.273438 L 879.503906 137.679688 L 944.847656 137.679688 L 1006.785156 199.617188 L 973.636719 236.917969 L 913.601562 236.917969 Z M 846.957031 170.273438 " fill-opacity="1" fill-rule="nonzero"/><path fill="#5852f2" d="M 910.847656 248.035156 L 983.351562 248.035156 L 1024.660156 201.519531 L 949.703125 126.5625 L 871.140625 126.5625 L 830.234375 167.472656 Z M 877.449219 132.671875 L 946.949219 132.671875 L 1013.695312 199.417969 L 975.941406 241.925781 L 911.550781 241.925781 L 839.898438 170.273438 Z M 877.449219 132.671875 " fill-opacity="1" fill-rule="nonzero"/><g fill="#ffffff" fill-opacity="1"><g transform="translate(77.170614, 210.013092)"><g><path d="M 21.703125 -7.109375 C 22.773438 -7.109375 23.9375 -7.273438 25.1875 -7.609375 C 26.4375 -7.941406 27.519531 -8.5 28.4375 -9.28125 C 29.351562 -10.0625 29.8125 -11.125 29.8125 -12.46875 C 29.8125 -13.71875 29.332031 -14.71875 28.375 -15.46875 C 27.414062 -16.226562 26.15625 -16.851562 24.59375 -17.34375 C 23.03125 -17.84375 21.320312 -18.300781 19.46875 -18.71875 C 17.613281 -19.144531 15.75 -19.660156 13.875 -20.265625 C 12 -20.867188 10.273438 -21.660156 8.703125 -22.640625 C 7.140625 -23.628906 5.878906 -24.90625 4.921875 -26.46875 C 3.960938 -28.03125 3.484375 -30.015625 3.484375 -32.421875 C 3.484375 -34.796875 3.972656 -36.84375 4.953125 -38.5625 C 5.941406 -40.28125 7.25 -41.707031 8.875 -42.84375 C 10.507812 -43.988281 12.34375 -44.835938 14.375 -45.390625 C 16.40625 -45.953125 18.445312 -46.234375 20.5 -46.234375 C 23.625 -46.234375 26.546875 -45.738281 29.265625 -44.75 C 31.992188 -43.769531 34.21875 -42.21875 35.9375 -40.09375 C 37.664062 -37.976562 38.570312 -35.175781 38.65625 -31.6875 L 28.9375 -31.6875 C 28.675781 -34.050781 27.851562 -35.691406 26.46875 -36.609375 C 25.082031 -37.523438 23.140625 -37.984375 20.640625 -37.984375 C 19.703125 -37.984375 18.707031 -37.828125 17.65625 -37.515625 C 16.601562 -37.203125 15.707031 -36.695312 14.96875 -36 C 14.238281 -35.3125 13.875 -34.390625 13.875 -33.234375 C 13.875 -32.066406 14.351562 -31.148438 15.3125 -30.484375 C 16.269531 -29.816406 17.53125 -29.257812 19.09375 -28.8125 C 20.65625 -28.363281 22.375 -27.9375 24.25 -27.53125 C 26.125 -27.132812 27.988281 -26.644531 29.84375 -26.0625 C 31.695312 -25.476562 33.40625 -24.679688 34.96875 -23.671875 C 36.53125 -22.671875 37.789062 -21.367188 38.75 -19.765625 C 39.71875 -18.160156 40.203125 -16.101562 40.203125 -13.59375 C 40.203125 -10.914062 39.664062 -8.640625 38.59375 -6.765625 C 37.519531 -4.890625 36.078125 -3.378906 34.265625 -2.234375 C 32.460938 -1.097656 30.429688 -0.265625 28.171875 0.265625 C 25.921875 0.804688 23.632812 1.078125 21.3125 1.078125 C 17.957031 1.078125 14.816406 0.507812 11.890625 -0.625 C 8.960938 -1.769531 6.59375 -3.523438 4.78125 -5.890625 C 2.976562 -8.265625 2.054688 -11.304688 2.015625 -15.015625 L 12.1875 -15.015625 C 12.320312 -12.285156 13.328125 -10.285156 15.203125 -9.015625 C 17.078125 -7.742188 19.242188 -7.109375 21.703125 -7.109375 Z M 21.703125 -7.109375 "/></g></g></g><g fill="#ffffff" fill-opacity="1"><g transform="translate(119.375305, 210.013092)"><g><path d="M 4.015625 0 L 4.015625 -45.5625 L 14.0625 -45.5625 L 14.0625 -9.109375 L 30.421875 -9.109375 L 30.421875 0 Z M 4.015625 0 "/></g></g></g><g fill="#ffffff" fill-opacity="1"><g transform="translate(152.134179, 210.013092)"><g><path d="M 14.0625 0 L 4.015625 0 L 4.015625 -45.5625 L 14.0625 -45.5625 Z M 14.0625 0 "/></g></g></g><g fill="#ffffff" fill-opacity="1"><g transform="translate(170.221906, 210.013092)"><g><path d="M 60.828125 0 L 49.78125 0 L 44.421875 -31.421875 L 35.515625 0 L 25.65625 0 L 16.75 -31.421875 L 11.390625 0 L 0.328125 0 L 9.171875 -45.5625 L 21.109375 -45.5625 L 30.625 -13.59375 L 40.0625 -45.5625 L 51.984375 -45.5625 Z M 60.828125 0 "/></g></g></g><g fill="#ffffff" fill-opacity="1"><g transform="translate(231.385204, 210.013092)"><g><path d="M 60.828125 0 L 49.78125 0 L 44.421875 -31.421875 L 35.515625 0 L 25.65625 0 L 16.75 -31.421875 L 11.390625 0 L 0.328125 0 L 9.171875 -45.5625 L 21.109375 -45.5625 L 30.625 -13.59375 L 40.0625 -45.5625 L 51.984375 -45.5625 Z M 60.828125 0 "/></g></g></g><g fill="#ffffff" fill-opacity="1"><g transform="translate(292.54851, 210.013092)"><g><path d="M 30.421875 -9.109375 L 30.421875 0 L 4.015625 0 L 4.015625 -45.5625 L 30.421875 -45.5625 L 30.421875 -36.453125 L 14.0625 -36.453125 L 14.0625 -27.40625 L 29.75 -27.40625 L 29.75 -18.296875 L 14.0625 -18.296875 L 14.0625 -9.109375 Z M 30.421875 -9.109375 "/></g></g></g><g fill="#ffffff" fill-opacity="1"><g transform="translate(326.982188, 210.013092)"><g><path d="M 14.0625 -16.28125 L 14.0625 0 L 4.015625 0 L 4.015625 -45.5625 L 21.109375 -45.5625 C 23.566406 -45.5625 25.851562 -44.945312 27.96875 -43.71875 C 30.09375 -42.488281 31.800781 -40.78125 33.09375 -38.59375 C 34.394531 -36.40625 35.046875 -33.859375 35.046875 -30.953125 C 35.046875 -28.410156 34.578125 -26.15625 33.640625 -24.1875 C 32.703125 -22.21875 31.445312 -20.609375 29.875 -19.359375 C 28.3125 -18.109375 26.570312 -17.238281 24.65625 -16.75 L 37.71875 0 L 24.984375 0 L 14.140625 -16.28125 Z M 19.4375 -37.65625 L 14.0625 -37.65625 L 14.0625 -24.1875 L 19.4375 -24.1875 C 20.90625 -24.1875 22.273438 -24.765625 23.546875 -25.921875 C 24.816406 -27.085938 25.453125 -28.765625 25.453125 -30.953125 C 25.453125 -33.054688 24.816406 -34.695312 23.546875 -35.875 C 22.273438 -37.0625 20.90625 -37.65625 19.4375 -37.65625 Z M 19.4375 -37.65625 "/></g></g></g><g fill="#ffffff" fill-opacity="1"><g transform="translate(363.894534, 210.013092)"><g/></g></g><g fill="#ffffff" fill-opacity="1"><g transform="translate(380.642422, 210.013092)"><g><path d="M 60.828125 0 L 49.78125 0 L 44.421875 -31.421875 L 35.515625 0 L 25.65625 0 L 16.75 -31.421875 L 11.390625 0 L 0.328125 0 L 9.171875 -45.5625 L 21.109375 -45.5625 L 30.625 -13.59375 L 40.0625 -45.5625 L 51.984375 -45.5625 Z M 60.828125 0 "/></g></g></g><g fill="#ffffff" fill-opacity="1"><g transform="translate(441.805711, 210.013092)"><g><path d="M 30.421875 -9.109375 L 30.421875 0 L 4.015625 0 L 4.015625 -45.5625 L 30.421875 -45.5625 L 30.421875 -36.453125 L 14.0625 -36.453125 L 14.0625 -27.40625 L 29.75 -27.40625 L 29.75 -18.296875 L 14.0625 -18.296875 L 14.0625 -9.109375 Z M 30.421875 -9.109375 "/></g></g></g><g fill="#ffffff" fill-opacity="1"><g transform="translate(476.239389, 210.013092)"><g><path d="M 23.390625 -36.453125 L 23.390625 0 L 13.328125 0 L 13.328125 -36.453125 L 0.328125 -36.453125 L 0.328125 -45.5625 L 36.375 -45.5625 L 36.375 -36.453125 Z M 23.390625 -36.453125 "/></g></g></g><g clip-path="url(#106bd6290e)"><g clip-path="url(#1c1289d3d1)"><path fill="#5852f2" d="M 830.390625 85.675781 L 1026.355469 85.675781 L 1026.355469 293.886719 L 830.390625 293.886719 Z M 830.390625 85.675781 " fill-opacity="1" fill-rule="nonzero"/></g></g><g fill="#ffffff" fill-opacity="1"><g transform="translate(844.983175, 259.356501)"><g><path d="M 110.625 -2.71875 C 110.625 -0.90625 109.660156 0 107.734375 0 L 83.90625 0 C 82.082031 0 80.945312 -1.019531 80.5 -3.0625 L 74.375 -30.96875 L 39.484375 -30.96875 L 33.359375 -3.0625 C 32.898438 -1.019531 31.765625 0 29.953125 0 L 6.125 0 C 4.195312 0 3.234375 -0.90625 3.234375 -2.71875 C 3.234375 -2.832031 3.257812 -2.972656 3.3125 -3.140625 C 3.375 -3.316406 3.40625 -3.460938 3.40625 -3.578125 L 28.765625 -109.09375 C 30.117188 -114.539062 32.269531 -118.625 35.21875 -121.34375 C 38.175781 -124.0625 41.582031 -125.847656 45.4375 -126.703125 C 49.289062 -127.554688 53.148438 -127.984375 57.015625 -127.984375 C 60.984375 -127.984375 64.867188 -127.554688 68.671875 -126.703125 C 72.472656 -125.847656 75.847656 -124.0625 78.796875 -121.34375 C 81.742188 -118.625 83.84375 -114.539062 85.09375 -109.09375 L 110.453125 -3.578125 C 110.453125 -3.460938 110.476562 -3.316406 110.53125 -3.140625 C 110.59375 -2.972656 110.625 -2.832031 110.625 -2.71875 Z M 69.609375 -54.296875 L 59.21875 -101.265625 C 59.113281 -102.171875 58.914062 -102.820312 58.625 -103.21875 C 58.34375 -103.613281 57.804688 -103.8125 57.015625 -103.8125 C 55.765625 -103.8125 54.96875 -102.960938 54.625 -101.265625 L 44.25 -54.296875 Z M 69.609375 -54.296875 "/></g></g></g><g fill="#ffffff" fill-opacity="1"><g transform="translate(958.833398, 259.356501)"><g><path d="M 41.015625 -3.40625 C 41.015625 -2.5 40.703125 -1.703125 40.078125 -1.015625 C 39.453125 -0.335938 38.6875 0 37.78125 0 L 14.96875 0 C 14.0625 0 13.320312 -0.335938 12.75 -1.015625 C 12.1875 -1.703125 11.90625 -2.5 11.90625 -3.40625 L 11.90625 -123.21875 C 11.90625 -125.375 12.925781 -126.453125 14.96875 -126.453125 L 37.78125 -126.453125 C 39.9375 -126.453125 41.015625 -125.375 41.015625 -123.21875 Z M 41.015625 -3.40625 "/></g></g></g><g fill="#6ce1fe" fill-opacity="1"><g transform="translate(135.081801, 263.338293)"><g><path d="M 22.375 0 L 19.3125 0 L 14.25 -18.015625 L 9.34375 0 L 6.296875 0 L 0.671875 -21.9375 L 3.796875 -21.9375 L 7.90625 -4.125 L 12.796875 -21.9375 L 15.8125 -21.9375 L 20.765625 -4.125 L 24.828125 -21.9375 L 27.953125 -21.9375 Z M 22.375 0 "/></g></g></g><g fill="#6ce1fe" fill-opacity="1"><g transform="translate(163.472065, 263.338293)"><g><path d="M 15.4375 -7.03125 L 3.8125 -7.03125 C 3.832031 -6.238281 3.898438 -5.59375 4.015625 -5.09375 C 4.128906 -4.59375 4.335938 -4.117188 4.640625 -3.671875 C 5.515625 -2.304688 6.785156 -1.625 8.453125 -1.625 C 10.484375 -1.625 11.851562 -2.675781 12.5625 -4.78125 L 15.109375 -4.78125 C 14.785156 -3.070312 14.03125 -1.734375 12.84375 -0.765625 C 11.65625 0.203125 10.160156 0.6875 8.359375 0.6875 C 6.140625 0.6875 4.390625 -0.0546875 3.109375 -1.546875 C 1.835938 -3.035156 1.203125 -5.070312 1.203125 -7.65625 C 1.203125 -10.25 1.851562 -12.320312 3.15625 -13.875 C 4.46875 -15.425781 6.222656 -16.203125 8.421875 -16.203125 C 9.890625 -16.203125 11.1875 -15.832031 12.3125 -15.09375 C 13.445312 -14.363281 14.28125 -13.351562 14.8125 -12.0625 C 15.226562 -10.925781 15.4375 -9.25 15.4375 -7.03125 Z M 3.890625 -9.09375 L 12.71875 -9.09375 C 12.738281 -9.125 12.75 -9.175781 12.75 -9.25 C 12.75 -10.5625 12.332031 -11.664062 11.5 -12.5625 C 10.664062 -13.457031 9.628906 -13.90625 8.390625 -13.90625 C 7.117188 -13.90625 6.078125 -13.46875 5.265625 -12.59375 C 4.453125 -11.71875 3.992188 -10.550781 3.890625 -9.09375 Z M 3.890625 -9.09375 "/></g></g></g><g fill="#6ce1fe" fill-opacity="1"><g transform="translate(180.182048, 263.338293)"><g><path d="M 9.65625 -13.546875 C 8.832031 -13.535156 8.132812 -13.453125 7.5625 -13.296875 C 7 -13.148438 6.476562 -12.890625 6 -12.515625 C 5.53125 -12.140625 5.179688 -11.59375 4.953125 -10.875 C 4.722656 -10.15625 4.609375 -9.257812 4.609375 -8.1875 L 4.609375 0 L 2.09375 0 L 2.09375 -15.75 L 4.390625 -15.75 L 4.390625 -12.921875 C 5.117188 -14.085938 5.8125 -14.925781 6.46875 -15.4375 C 7.132812 -15.945312 7.878906 -16.203125 8.703125 -16.203125 C 8.859375 -16.203125 9.175781 -16.175781 9.65625 -16.125 Z M 9.65625 -13.546875 "/></g></g></g><g fill="#6ce1fe" fill-opacity="1"><g transform="translate(190.174621, 263.338293)"><g><path d="M 4.25 -21.9375 L 4.25 -9.09375 L 10.90625 -15.75 L 14.140625 -15.75 L 8.65625 -10.3125 L 15.109375 0 L 12 0 L 6.6875 -8.53125 L 4.25 -6.125 L 4.25 0 L 1.734375 0 L 1.734375 -21.9375 Z M 4.25 -21.9375 "/></g></g></g><g fill="#6ce1fe" fill-opacity="1"><g transform="translate(205.213611, 263.338293)"><g/></g></g><g fill="#6ce1fe" fill-opacity="1"><g transform="translate(213.568607, 263.338293)"><g><path d="M 3.671875 -4.703125 C 3.722656 -4.347656 3.785156 -4.039062 3.859375 -3.78125 C 3.941406 -3.519531 4.070312 -3.242188 4.25 -2.953125 C 4.425781 -2.660156 4.644531 -2.425781 4.90625 -2.25 C 5.164062 -2.070312 5.519531 -1.921875 5.96875 -1.796875 C 6.414062 -1.679688 6.929688 -1.625 7.515625 -1.625 C 8.609375 -1.625 9.492188 -1.847656 10.171875 -2.296875 C 10.859375 -2.742188 11.203125 -3.34375 11.203125 -4.09375 C 11.203125 -4.664062 11.007812 -5.117188 10.625 -5.453125 C 10.25 -5.796875 9.617188 -6.078125 8.734375 -6.296875 L 6.421875 -6.84375 C 4.554688 -7.289062 3.253906 -7.851562 2.515625 -8.53125 C 1.773438 -9.21875 1.40625 -10.171875 1.40625 -11.390625 C 1.40625 -12.847656 1.957031 -14.015625 3.0625 -14.890625 C 4.164062 -15.765625 5.628906 -16.203125 7.453125 -16.203125 C 9.273438 -16.203125 10.679688 -15.785156 11.671875 -14.953125 C 12.660156 -14.117188 13.160156 -12.921875 13.171875 -11.359375 L 10.53125 -11.359375 C 10.457031 -13.054688 9.410156 -13.90625 7.390625 -13.90625 C 6.359375 -13.90625 5.539062 -13.6875 4.9375 -13.25 C 4.332031 -12.8125 4.03125 -12.234375 4.03125 -11.515625 C 4.03125 -10.960938 4.253906 -10.507812 4.703125 -10.15625 C 5.160156 -9.800781 5.90625 -9.5 6.9375 -9.25 L 9.34375 -8.703125 C 10.914062 -8.316406 12.050781 -7.773438 12.75 -7.078125 C 13.445312 -6.390625 13.796875 -5.460938 13.796875 -4.296875 C 13.796875 -2.773438 13.207031 -1.5625 12.03125 -0.65625 C 10.863281 0.238281 9.285156 0.6875 7.296875 0.6875 C 5.234375 0.6875 3.6875 0.25 2.65625 -0.625 C 1.625 -1.507812 1.078125 -2.867188 1.015625 -4.703125 Z M 3.671875 -4.703125 "/></g></g></g><g fill="#6ce1fe" fill-opacity="1"><g transform="translate(228.607598, 263.338293)"><g><path d="M 4.578125 -21.9375 L 4.578125 0 L 2.03125 0 L 2.03125 -21.9375 Z M 4.578125 -21.9375 "/></g></g></g><g fill="#6ce1fe" fill-opacity="1"><g transform="translate(235.274877, 263.338293)"><g><path d="M 4.515625 -21.9375 L 4.515625 -18.765625 L 1.984375 -18.765625 L 1.984375 -21.9375 Z M 4.53125 -15.75 L 4.53125 0 L 2.015625 0 L 2.015625 -15.75 Z M 4.53125 -15.75 "/></g></g></g><g fill="#6ce1fe" fill-opacity="1"><g transform="translate(241.942157, 263.338293)"><g><path d="M 2.109375 -15.75 L 4.40625 -15.75 L 4.40625 -13.53125 C 5.101562 -14.488281 5.820312 -15.171875 6.5625 -15.578125 C 7.3125 -15.992188 8.207031 -16.203125 9.25 -16.203125 C 10.28125 -16.203125 11.128906 -16.007812 11.796875 -15.625 C 12.460938 -15.25 13.035156 -14.640625 13.515625 -13.796875 C 14.242188 -14.691406 14.96875 -15.316406 15.6875 -15.671875 C 16.414062 -16.023438 17.300781 -16.203125 18.34375 -16.203125 C 19.8125 -16.203125 20.941406 -15.820312 21.734375 -15.0625 C 22.523438 -14.3125 22.921875 -13.234375 22.921875 -11.828125 L 22.921875 0 L 20.390625 0 L 20.390625 -10.859375 C 20.390625 -11.847656 20.128906 -12.617188 19.609375 -13.171875 C 19.097656 -13.734375 18.390625 -14.015625 17.484375 -14.015625 C 16.453125 -14.015625 15.570312 -13.613281 14.84375 -12.8125 C 14.125 -12.007812 13.765625 -11.039062 13.765625 -9.90625 L 13.765625 0 L 11.25 0 L 11.25 -10.859375 C 11.25 -11.859375 10.992188 -12.632812 10.484375 -13.1875 C 9.972656 -13.738281 9.257812 -14.015625 8.34375 -14.015625 C 7.3125 -14.015625 6.429688 -13.613281 5.703125 -12.8125 C 4.984375 -12.007812 4.625 -11.039062 4.625 -9.90625 L 4.625 0 L 2.109375 0 Z M 2.109375 -15.75 "/></g></g></g><g fill="#6ce1fe" fill-opacity="1"><g transform="translate(266.97371, 263.338293)"><g><path d="M 2.109375 -15.75 L 4.40625 -15.75 L 4.40625 -13.53125 C 5.101562 -14.488281 5.820312 -15.171875 6.5625 -15.578125 C 7.3125 -15.992188 8.207031 -16.203125 9.25 -16.203125 C 10.28125 -16.203125 11.128906 -16.007812 11.796875 -15.625 C 12.460938 -15.25 13.035156 -14.640625 13.515625 -13.796875 C 14.242188 -14.691406 14.96875 -15.316406 15.6875 -15.671875 C 16.414062 -16.023438 17.300781 -16.203125 18.34375 -16.203125 C 19.8125 -16.203125 20.941406 -15.820312 21.734375 -15.0625 C 22.523438 -14.3125 22.921875 -13.234375 22.921875 -11.828125 L 22.921875 0 L 20.390625 0 L 20.390625 -10.859375 C 20.390625 -11.847656 20.128906 -12.617188 19.609375 -13.171875 C 19.097656 -13.734375 18.390625 -14.015625 17.484375 -14.015625 C 16.453125 -14.015625 15.570312 -13.613281 14.84375 -12.8125 C 14.125 -12.007812 13.765625 -11.039062 13.765625 -9.90625 L 13.765625 0 L 11.25 0 L 11.25 -10.859375 C 11.25 -11.859375 10.992188 -12.632812 10.484375 -13.1875 C 9.972656 -13.738281 9.257812 -14.015625 8.34375 -14.015625 C 7.3125 -14.015625 6.429688 -13.613281 5.703125 -12.8125 C 4.984375 -12.007812 4.625 -11.039062 4.625 -9.90625 L 4.625 0 L 2.109375 0 Z M 2.109375 -15.75 "/></g></g></g><g fill="#6ce1fe" fill-opacity="1"><g transform="translate(292.005264, 263.338293)"><g><path d="M 15.4375 -7.03125 L 3.8125 -7.03125 C 3.832031 -6.238281 3.898438 -5.59375 4.015625 -5.09375 C 4.128906 -4.59375 4.335938 -4.117188 4.640625 -3.671875 C 5.515625 -2.304688 6.785156 -1.625 8.453125 -1.625 C 10.484375 -1.625 11.851562 -2.675781 12.5625 -4.78125 L 15.109375 -4.78125 C 14.785156 -3.070312 14.03125 -1.734375 12.84375 -0.765625 C 11.65625 0.203125 10.160156 0.6875 8.359375 0.6875 C 6.140625 0.6875 4.390625 -0.0546875 3.109375 -1.546875 C 1.835938 -3.035156 1.203125 -5.070312 1.203125 -7.65625 C 1.203125 -10.25 1.851562 -12.320312 3.15625 -13.875 C 4.46875 -15.425781 6.222656 -16.203125 8.421875 -16.203125 C 9.890625 -16.203125 11.1875 -15.832031 12.3125 -15.09375 C 13.445312 -14.363281 14.28125 -13.351562 14.8125 -12.0625 C 15.226562 -10.925781 15.4375 -9.25 15.4375 -7.03125 Z M 3.890625 -9.09375 L 12.71875 -9.09375 C 12.738281 -9.125 12.75 -9.175781 12.75 -9.25 C 12.75 -10.5625 12.332031 -11.664062 11.5 -12.5625 C 10.664062 -13.457031 9.628906 -13.90625 8.390625 -13.90625 C 7.117188 -13.90625 6.078125 -13.46875 5.265625 -12.59375 C 4.453125 -11.71875 3.992188 -10.550781 3.890625 -9.09375 Z M 3.890625 -9.09375 "/></g></g></g><g fill="#6ce1fe" fill-opacity="1"><g transform="translate(308.715247, 263.338293)"><g><path d="M 9.65625 -13.546875 C 8.832031 -13.535156 8.132812 -13.453125 7.5625 -13.296875 C 7 -13.148438 6.476562 -12.890625 6 -12.515625 C 5.53125 -12.140625 5.179688 -11.59375 4.953125 -10.875 C 4.722656 -10.15625 4.609375 -9.257812 4.609375 -8.1875 L 4.609375 0 L 2.09375 0 L 2.09375 -15.75 L 4.390625 -15.75 L 4.390625 -12.921875 C 5.117188 -14.085938 5.8125 -14.925781 6.46875 -15.4375 C 7.132812 -15.945312 7.878906 -16.203125 8.703125 -16.203125 C 8.859375 -16.203125 9.175781 -16.175781 9.65625 -16.125 Z M 9.65625 -13.546875 "/></g></g></g><g fill="#6ce1fe" fill-opacity="1"><g transform="translate(318.70782, 263.338293)"><g/></g></g><g fill="#6ce1fe" fill-opacity="1"><g transform="translate(327.062807, 263.338293)"><g><path d="M 2.109375 -15.75 L 4.40625 -15.75 L 4.40625 -13.125 C 5.113281 -14.21875 5.867188 -15.003906 6.671875 -15.484375 C 7.484375 -15.960938 8.476562 -16.203125 9.65625 -16.203125 C 11.175781 -16.203125 12.382812 -15.8125 13.28125 -15.03125 C 14.1875 -14.257812 14.640625 -13.222656 14.640625 -11.921875 L 14.640625 0 L 12.140625 0 L 12.140625 -10.90625 C 12.140625 -11.863281 11.847656 -12.617188 11.265625 -13.171875 C 10.679688 -13.734375 9.894531 -14.015625 8.90625 -14.015625 C 7.613281 -14.015625 6.578125 -13.53125 5.796875 -12.5625 C 5.015625 -11.59375 4.625 -10.304688 4.625 -8.703125 L 4.625 0 L 2.109375 0 Z M 2.109375 -15.75 "/></g></g></g><g fill="#6ce1fe" fill-opacity="1"><g transform="translate(343.772781, 263.338293)"><g><path d="M 4.515625 -21.9375 L 4.515625 -18.765625 L 1.984375 -18.765625 L 1.984375 -21.9375 Z M 4.53125 -15.75 L 4.53125 0 L 2.015625 0 L 2.015625 -15.75 Z M 4.53125 -15.75 "/></g></g></g><g fill="#6ce1fe" fill-opacity="1"><g transform="translate(350.440061, 263.338293)"><g><path d="M 15.4375 -7.03125 L 3.8125 -7.03125 C 3.832031 -6.238281 3.898438 -5.59375 4.015625 -5.09375 C 4.128906 -4.59375 4.335938 -4.117188 4.640625 -3.671875 C 5.515625 -2.304688 6.785156 -1.625 8.453125 -1.625 C 10.484375 -1.625 11.851562 -2.675781 12.5625 -4.78125 L 15.109375 -4.78125 C 14.785156 -3.070312 14.03125 -1.734375 12.84375 -0.765625 C 11.65625 0.203125 10.160156 0.6875 8.359375 0.6875 C 6.140625 0.6875 4.390625 -0.0546875 3.109375 -1.546875 C 1.835938 -3.035156 1.203125 -5.070312 1.203125 -7.65625 C 1.203125 -10.25 1.851562 -12.320312 3.15625 -13.875 C 4.46875 -15.425781 6.222656 -16.203125 8.421875 -16.203125 C 9.890625 -16.203125 11.1875 -15.832031 12.3125 -15.09375 C 13.445312 -14.363281 14.28125 -13.351562 14.8125 -12.0625 C 15.226562 -10.925781 15.4375 -9.25 15.4375 -7.03125 Z M 3.890625 -9.09375 L 12.71875 -9.09375 C 12.738281 -9.125 12.75 -9.175781 12.75 -9.25 C 12.75 -10.5625 12.332031 -11.664062 11.5 -12.5625 C 10.664062 -13.457031 9.628906 -13.90625 8.390625 -13.90625 C 7.117188 -13.90625 6.078125 -13.46875 5.265625 -12.59375 C 4.453125 -11.71875 3.992188 -10.550781 3.890625 -9.09375 Z M 3.890625 -9.09375 "/></g></g></g><g fill="#6ce1fe" fill-opacity="1"><g transform="translate(367.150054, 263.338293)"><g><path d="M 7.640625 -15.75 L 7.640625 -13.71875 L 5.046875 -13.71875 L 5.046875 -2.921875 C 5.046875 -2.367188 5.140625 -1.992188 5.328125 -1.796875 C 5.515625 -1.597656 5.878906 -1.5 6.421875 -1.5 C 6.972656 -1.5 7.378906 -1.539062 7.640625 -1.625 L 7.640625 0.484375 C 6.890625 0.617188 6.207031 0.6875 5.59375 0.6875 C 4.613281 0.6875 3.863281 0.472656 3.34375 0.046875 C 2.832031 -0.378906 2.578125 -0.992188 2.578125 -1.796875 L 2.578125 -13.71875 L 0.421875 -13.71875 L 0.421875 -15.75 L 2.578125 -15.75 L 2.578125 -20.078125 L 5.046875 -20.078125 L 5.046875 -15.75 Z M 7.640625 -15.75 "/></g></g></g><g fill="#6ce1fe" fill-opacity="1"><g transform="translate(375.505041, 263.338293)"><g/></g></g><g fill="#6ce1fe" fill-opacity="1"><g transform="translate(383.860028, 263.338293)"><g><path d="M 12.109375 -10.90625 C 12.109375 -11.5 12.003906 -12.007812 11.796875 -12.4375 C 11.585938 -12.863281 11.304688 -13.1875 10.953125 -13.40625 C 10.609375 -13.625 10.265625 -13.78125 9.921875 -13.875 C 9.578125 -13.96875 9.222656 -14.015625 8.859375 -14.015625 C 7.578125 -14.015625 6.546875 -13.53125 5.765625 -12.5625 C 4.992188 -11.59375 4.609375 -10.304688 4.609375 -8.703125 L 4.609375 0 L 2.109375 0 L 2.109375 -21.9375 L 4.609375 -21.9375 L 4.609375 -13.609375 C 5.347656 -14.554688 6.09375 -15.222656 6.84375 -15.609375 C 7.59375 -16.003906 8.53125 -16.203125 9.65625 -16.203125 C 11.1875 -16.203125 12.394531 -15.816406 13.28125 -15.046875 C 14.175781 -14.285156 14.625 -13.242188 14.625 -11.921875 L 14.625 0 L 12.109375 0 Z M 12.109375 -10.90625 "/></g></g></g><g fill="#6ce1fe" fill-opacity="1"><g transform="translate(400.570002, 263.338293)"><g><path d="M 1.96875 -11.109375 C 1.988281 -11.921875 2.132812 -12.640625 2.40625 -13.265625 C 2.6875 -13.890625 3.023438 -14.382812 3.421875 -14.75 C 3.828125 -15.113281 4.3125 -15.40625 4.875 -15.625 C 5.445312 -15.851562 6 -16.003906 6.53125 -16.078125 C 7.0625 -16.160156 7.632812 -16.203125 8.25 -16.203125 C 10.195312 -16.203125 11.675781 -15.835938 12.6875 -15.109375 C 13.695312 -14.378906 14.203125 -13.316406 14.203125 -11.921875 L 14.203125 -2.640625 C 14.203125 -2.253906 14.316406 -1.953125 14.546875 -1.734375 C 14.785156 -1.515625 15.125 -1.40625 15.5625 -1.40625 C 15.738281 -1.40625 15.910156 -1.429688 16.078125 -1.484375 L 16.078125 0.421875 C 15.421875 0.597656 14.851562 0.6875 14.375 0.6875 C 13.5625 0.6875 12.953125 0.5 12.546875 0.125 C 12.140625 -0.25 11.890625 -0.832031 11.796875 -1.625 C 10.921875 -0.8125 10.054688 -0.222656 9.203125 0.140625 C 8.347656 0.503906 7.425781 0.6875 6.4375 0.6875 C 4.84375 0.6875 3.582031 0.269531 2.65625 -0.5625 C 1.726562 -1.40625 1.265625 -2.546875 1.265625 -3.984375 C 1.265625 -5.734375 1.878906 -6.976562 3.109375 -7.71875 C 3.953125 -8.226562 5.394531 -8.628906 7.4375 -8.921875 C 7.726562 -8.953125 8.28125 -9.023438 9.09375 -9.140625 C 10.082031 -9.265625 10.765625 -9.453125 11.140625 -9.703125 C 11.523438 -9.960938 11.71875 -10.359375 11.71875 -10.890625 L 11.71875 -11.546875 C 11.71875 -12.296875 11.410156 -12.875 10.796875 -13.28125 C 10.179688 -13.695312 9.3125 -13.90625 8.1875 -13.90625 C 7.007812 -13.90625 6.125 -13.675781 5.53125 -13.21875 C 4.9375 -12.769531 4.59375 -12.066406 4.5 -11.109375 Z M 6.984375 -1.5 C 8.367188 -1.5 9.503906 -1.863281 10.390625 -2.59375 C 11.273438 -3.332031 11.71875 -4.128906 11.71875 -4.984375 L 11.71875 -7.78125 C 11.28125 -7.582031 10.6875 -7.421875 9.9375 -7.296875 C 9.1875 -7.171875 8.484375 -7.054688 7.828125 -6.953125 C 7.171875 -6.847656 6.535156 -6.703125 5.921875 -6.515625 C 5.304688 -6.335938 4.8125 -6.039062 4.4375 -5.625 C 4.070312 -5.21875 3.890625 -4.6875 3.890625 -4.03125 C 3.890625 -3.238281 4.160156 -2.617188 4.703125 -2.171875 C 5.242188 -1.722656 6.003906 -1.5 6.984375 -1.5 Z M 6.984375 -1.5 "/></g></g></g><g fill="#6ce1fe" fill-opacity="1"><g transform="translate(417.279976, 263.338293)"><g><path d="M 9.65625 -13.546875 C 8.832031 -13.535156 8.132812 -13.453125 7.5625 -13.296875 C 7 -13.148438 6.476562 -12.890625 6 -12.515625 C 5.53125 -12.140625 5.179688 -11.59375 4.953125 -10.875 C 4.722656 -10.15625 4.609375 -9.257812 4.609375 -8.1875 L 4.609375 0 L 2.09375 0 L 2.09375 -15.75 L 4.390625 -15.75 L 4.390625 -12.921875 C 5.117188 -14.085938 5.8125 -14.925781 6.46875 -15.4375 C 7.132812 -15.945312 7.878906 -16.203125 8.703125 -16.203125 C 8.859375 -16.203125 9.175781 -16.175781 9.65625 -16.125 Z M 9.65625 -13.546875 "/></g></g></g><g fill="#6ce1fe" fill-opacity="1"><g transform="translate(427.272548, 263.338293)"><g><path d="M 14.875 -21.9375 L 14.875 0 L 12.671875 0 L 12.671875 -2.09375 C 11.992188 -1.113281 11.257812 -0.40625 10.46875 0.03125 C 9.675781 0.46875 8.734375 0.6875 7.640625 0.6875 C 5.523438 0.6875 3.851562 -0.078125 2.625 -1.609375 C 1.394531 -3.148438 0.78125 -5.25 0.78125 -7.90625 C 0.78125 -10.425781 1.394531 -12.4375 2.625 -13.9375 C 3.851562 -15.445312 5.488281 -16.203125 7.53125 -16.203125 C 9.695312 -16.203125 11.320312 -15.390625 12.40625 -13.765625 L 12.40625 -21.9375 Z M 7.984375 -13.875 C 6.609375 -13.875 5.5 -13.3125 4.65625 -12.1875 C 3.820312 -11.070312 3.40625 -9.59375 3.40625 -7.75 C 3.40625 -5.914062 3.828125 -4.4375 4.671875 -3.3125 C 5.515625 -2.195312 6.625 -1.640625 8 -1.640625 C 9.332031 -1.640625 10.398438 -2.191406 11.203125 -3.296875 C 12.003906 -4.410156 12.40625 -5.878906 12.40625 -7.703125 C 12.40625 -9.585938 12.003906 -11.085938 11.203125 -12.203125 C 10.398438 -13.316406 9.328125 -13.875 7.984375 -13.875 Z M 7.984375 -13.875 "/></g></g></g><g fill="#6ce1fe" fill-opacity="1"><g transform="translate(443.982522, 263.338293)"><g><path d="M 15.4375 -7.03125 L 3.8125 -7.03125 C 3.832031 -6.238281 3.898438 -5.59375 4.015625 -5.09375 C 4.128906 -4.59375 4.335938 -4.117188 4.640625 -3.671875 C 5.515625 -2.304688 6.785156 -1.625 8.453125 -1.625 C 10.484375 -1.625 11.851562 -2.675781 12.5625 -4.78125 L 15.109375 -4.78125 C 14.785156 -3.070312 14.03125 -1.734375 12.84375 -0.765625 C 11.65625 0.203125 10.160156 0.6875 8.359375 0.6875 C 6.140625 0.6875 4.390625 -0.0546875 3.109375 -1.546875 C 1.835938 -3.035156 1.203125 -5.070312 1.203125 -7.65625 C 1.203125 -10.25 1.851562 -12.320312 3.15625 -13.875 C 4.46875 -15.425781 6.222656 -16.203125 8.421875 -16.203125 C 9.890625 -16.203125 11.1875 -15.832031 12.3125 -15.09375 C 13.445312 -14.363281 14.28125 -13.351562 14.8125 -12.0625 C 15.226562 -10.925781 15.4375 -9.25 15.4375 -7.03125 Z M 3.890625 -9.09375 L 12.71875 -9.09375 C 12.738281 -9.125 12.75 -9.175781 12.75 -9.25 C 12.75 -10.5625 12.332031 -11.664062 11.5 -12.5625 C 10.664062 -13.457031 9.628906 -13.90625 8.390625 -13.90625 C 7.117188 -13.90625 6.078125 -13.46875 5.265625 -12.59375 C 4.453125 -11.71875 3.992188 -10.550781 3.890625 -9.09375 Z M 3.890625 -9.09375 "/></g></g></g><g fill="#6ce1fe" fill-opacity="1"><g transform="translate(460.692496, 263.338293)"><g><path d="M 9.65625 -13.546875 C 8.832031 -13.535156 8.132812 -13.453125 7.5625 -13.296875 C 7 -13.148438 6.476562 -12.890625 6 -12.515625 C 5.53125 -12.140625 5.179688 -11.59375 4.953125 -10.875 C 4.722656 -10.15625 4.609375 -9.257812 4.609375 -8.1875 L 4.609375 0 L 2.09375 0 L 2.09375 -15.75 L 4.390625 -15.75 L 4.390625 -12.921875 C 5.117188 -14.085938 5.8125 -14.925781 6.46875 -15.4375 C 7.132812 -15.945312 7.878906 -16.203125 8.703125 -16.203125 C 8.859375 -16.203125 9.175781 -16.175781 9.65625 -16.125 Z M 9.65625 -13.546875 "/></g></g></g></svg>