<svg width="400" height="300" viewBox="0 0 400 300" xmlns="http://www.w3.org/2000/svg">
    <!-- Achtergrond -->
    <rect width="400" height="300" fill="#f8f9fa" rx="8" ry="8"/>
    
    <!-- Chat/Prompt interface -->
    <rect x="50" y="50" width="300" height="200" fill="#ffffff" rx="8" ry="8" stroke="#e0e0e0" stroke-width="2"/>
    
    <!-- Prompt engineering titel -->
    <rect x="70" y="60" width="260" height="30" fill="#f5f5ff" rx="4" ry="4"/>
    <rect x="120" y="75" width="160" height="5" fill="#5852f2" rx="2" ry="2"/>
    
    <!-- Input prompt voorbeeld -->
    <rect x="70" y="100" width="260" height="40" fill="#f5f5ff" rx="4" ry="4"/>
    <rect x="85" y="120" width="180" height="5" fill="#333333" rx="2" ry="2"/>
    
    <!-- Kwalificerende prompt elementen -->
    <rect x="70" y="150" width="80" height="25" fill="#e6f7ff" rx="12" ry="12"/>
    <rect x="90" y="162" width="40" height="5" fill="#0086c3" rx="2" ry="2"/>
    
    <rect x="160" y="150" width="80" height="25" fill="#fff3e6" rx="12" ry="12"/>
    <rect x="180" y="162" width="40" height="5" fill="#fa8c16" rx="2" ry="2"/>
    
    <rect x="250" y="150" width="80" height="25" fill="#f6ffed" rx="12" ry="12"/>
    <rect x="270" y="162" width="40" height="5" fill="#52c41a" rx="2" ry="2"/>
    
    <!-- AI antwoord -->
    <rect x="70" y="185" width="260" height="1" fill="#e0e0e0"/>
    
    <rect x="70" y="195" width="260" height="45" fill="#fcfcfc" rx="4" ry="4"/>
    <rect x="85" y="205" width="120" height="5" fill="#333333" rx="2" ry="2"/>
    
    <!-- AI-gegenereerde tekst (voorgesteld) -->
    <rect x="85" y="220" width="230" height="3" fill="#666666" rx="1" ry="1"/>
    <rect x="85" y="228" width="210" height="3" fill="#666666" rx="1" ry="1"/>
    
    <!-- Decoratieve elementen -->
    <circle cx="335" cy="125" r="5" fill="#5852f2" opacity="0.7"/>
    <circle cx="335" cy="140" r="5" fill="#5852f2" opacity="0.5"/>
    <circle cx="335" cy="155" r="5" fill="#5852f2" opacity="0.3"/>
</svg> 