<svg width="400" height="300" viewBox="0 0 400 300" xmlns="http://www.w3.org/2000/svg">
    <!-- Achtergrond -->
    <rect width="400" height="300" fill="#f8f9fa" rx="8" ry="8"/>
    
    <!-- Workflow automation diagram -->
    <rect x="80" y="40" width="240" height="220" fill="#ffffff" rx="8" ry="8" stroke="#e0e0e0" stroke-width="2"/>
    
    <!-- Processtappen (blokken) in de workflow -->
    <rect x="120" y="70" width="160" height="40" fill="#f5f5ff" rx="6" ry="6" stroke="#5852f2" stroke-width="2"/>
    <rect x="150" y="88" width="100" height="10" fill="#333333" rx="2" ry="2"/>
    
    <!-- Pijl naar beneden -->
    <polygon points="200,110 193,117 207,117" fill="#5852f2"/>
    <line x1="200" y1="117" x2="200" y2="130" stroke="#5852f2" stroke-width="2"/>
    
    <rect x="120" y="130" width="160" height="40" fill="#f5f5ff" rx="6" ry="6" stroke="#5852f2" stroke-width="2"/>
    <rect x="150" y="148" width="100" height="10" fill="#333333" rx="2" ry="2"/>
    
    <!-- Pijl naar beneden -->
    <polygon points="200,170 193,177 207,177" fill="#5852f2"/>
    <line x1="200" y1="177" x2="200" y2="190" stroke="#5852f2" stroke-width="2"/>
    
    <rect x="120" y="190" width="160" height="40" fill="#f5f5ff" rx="6" ry="6" stroke="#5852f2" stroke-width="2"/>
    <rect x="150" y="208" width="100" height="10" fill="#333333" rx="2" ry="2"/>
    
    <!-- Automatiseringssymbolen -->
    <circle cx="300" cy="90" r="10" fill="#ffffff" stroke="#5852f2" stroke-width="2"/>
    <circle cx="300" cy="90" r="4" fill="#5852f2"/>
    
    <circle cx="300" cy="150" r="10" fill="#ffffff" stroke="#5852f2" stroke-width="2"/>
    <circle cx="300" cy="150" r="4" fill="#5852f2"/>
    
    <circle cx="300" cy="210" r="10" fill="#ffffff" stroke="#5852f2" stroke-width="2"/>
    <circle cx="300" cy="210" r="4" fill="#5852f2"/>
    
    <!-- Tijdbesparingssymbool -->
    <circle cx="100" cy="90" r="15" fill="#ffffff" stroke="#28a745" stroke-width="2"/>
    <line x1="100" y1="90" x2="100" y2="82" stroke="#28a745" stroke-width="2"/>
    <line x1="100" y1="90" x2="106" y2="96" stroke="#28a745" stroke-width="2"/>
    
    <!-- Instellingensymbool (tandwiel) -->
    <circle cx="100" cy="150" r="15" fill="#ffffff" stroke="#5852f2" stroke-width="2"/>
    <circle cx="100" cy="150" r="8" fill="#f5f5ff" stroke="#5852f2" stroke-width="1"/>
    <line x1="100" y1="135" x2="100" y2="138" stroke="#5852f2" stroke-width="2"/>
    <line x1="100" y1="162" x2="100" y2="165" stroke="#5852f2" stroke-width="2"/>
    <line x1="85" y1="150" x2="88" y2="150" stroke="#5852f2" stroke-width="2"/>
    <line x1="112" y1="150" x2="115" y2="150" stroke="#5852f2" stroke-width="2"/>
    <line x1="89" y1="139" x2="91" y2="141" stroke="#5852f2" stroke-width="2"/>
    <line x1="109" y1="159" x2="111" y2="161" stroke="#5852f2" stroke-width="2"/>
    <line x1="89" y1="161" x2="91" y2="159" stroke="#5852f2" stroke-width="2"/>
    <line x1="109" y1="141" x2="111" y2="139" stroke="#5852f2" stroke-width="2"/>
    
    <!-- Outputsymbool (document) -->
    <path d="M85,200 L115,200 L115,225 L100,215 L85,225 Z" fill="#ffffff" stroke="#f48024" stroke-width="2"/>
</svg> 