<svg width="400" height="300" viewBox="0 0 400 300" xmlns="http://www.w3.org/2000/svg">
    <!-- Achtergrond -->
    <rect width="400" height="300" fill="#f8f9fa" rx="8" ry="8"/>
    
    <!-- App interface achtergrond -->
    <rect x="20" y="20" width="360" height="260" fill="#ffffff" rx="6" ry="6" stroke="#e0e0e0" stroke-width="2"/>
    
    <!-- Sidebar (email lijst) -->
    <rect x="20" y="20" width="140" height="260" fill="#f5f5ff" rx="6" ry="6"/>
    
    <!-- Email items in sidebar -->
    <rect x="30" y="40" width="120" height="40" fill="#ffffff" rx="4" ry="4" stroke="#e0e0e0" stroke-width="1"/>
    <rect x="40" y="50" width="60" height="8" fill="#333333" rx="2" ry="2"/>
    <rect x="40" y="65" width="100" height="4" fill="#999999" rx="1" ry="1"/>
    
    <rect x="30" y="90" width="120" height="40" fill="#5852f2" rx="4" ry="4"/>
    <rect x="40" y="100" width="60" height="8" fill="#ffffff" rx="2" ry="2"/>
    <rect x="40" y="115" width="100" height="4" fill="#ffffff" opacity="0.7" rx="1" ry="1"/>
    
    <rect x="30" y="140" width="120" height="40" fill="#ffffff" rx="4" ry="4" stroke="#e0e0e0" stroke-width="1"/>
    <rect x="40" y="150" width="60" height="8" fill="#333333" rx="2" ry="2"/>
    <rect x="40" y="165" width="100" height="4" fill="#999999" rx="1" ry="1"/>
    
    <rect x="30" y="190" width="120" height="40" fill="#ffffff" rx="4" ry="4" stroke="#e0e0e0" stroke-width="1"/>
    <rect x="40" y="200" width="60" height="8" fill="#333333" rx="2" ry="2"/>
    <rect x="40" y="215" width="100" height="4" fill="#999999" rx="1" ry="1"/>
    
    <!-- Email inhoud -->
    <rect x="180" y="40" width="180" height="10" fill="#333333" rx="2" ry="2"/>
    <rect x="180" y="60" width="140" height="6" fill="#666666" rx="1" ry="1"/>
    
    <rect x="180" y="80" width="180" height="1" fill="#eeeeee"/>
    
    <rect x="180" y="100" width="180" height="6" fill="#666666" rx="1" ry="1"/>
    <rect x="180" y="115" width="160" height="6" fill="#666666" rx="1" ry="1"/>
    <rect x="180" y="130" width="170" height="6" fill="#666666" rx="1" ry="1"/>
    <rect x="180" y="145" width="150" height="6" fill="#666666" rx="1" ry="1"/>
    
    <!-- Voorgestelde antwoorden -->
    <rect x="180" y="180" width="180" height="30" fill="#f5f5ff" rx="4" ry="4"/>
    <rect x="190" y="193" width="120" height="4" fill="#5852f2" rx="1" ry="1"/>
    
    <rect x="180" y="220" width="180" height="30" fill="#f5f5ff" rx="4" ry="4"/>
    <rect x="190" y="233" width="120" height="4" fill="#5852f2" rx="1" ry="1"/>
</svg> 