<svg width="600" height="400" viewBox="0 0 600 400" xmlns="http://www.w3.org/2000/svg">
    <!-- Achtergrond -->
    <rect width="600" height="400" fill="#f8f9fa" rx="8" ry="8"/>
    
    <!-- Scherm dashboard achtergrond -->
    <rect x="20" y="20" width="560" height="360" fill="#ffffff" rx="6" ry="6" stroke="#e0e0e0" stroke-width="2"/>
    
    <!-- Sidebar -->
    <rect x="20" y="20" width="120" height="360" fill="#f5f5ff" rx="6" ry="6"/>
    
    <!-- Header -->
    <rect x="140" y="20" width="440" height="60" fill="#fcfcfc" rx="0" ry="0"/>
    
    <!-- Content blokken -->
    <rect x="160" y="100" width="180" height="100" fill="#f0f0ff" rx="6" ry="6"/>
    <rect x="160" y="220" width="180" height="140" fill="#f0f0ff" rx="6" ry="6"/>
    <rect x="360" y="100" width="200" height="260" fill="#f0f0ff" rx="6" ry="6"/>
    
    <!-- Sidebar menu items -->
    <rect x="40" y="60" width="80" height="10" fill="#5852f2" rx="2" ry="2"/>
    <rect x="40" y="90" width="80" height="10" fill="#a9a6f2" rx="2" ry="2"/>
    <rect x="40" y="120" width="80" height="10" fill="#a9a6f2" rx="2" ry="2"/>
    <rect x="40" y="150" width="80" height="10" fill="#a9a6f2" rx="2" ry="2"/>
    <rect x="40" y="180" width="80" height="10" fill="#a9a6f2" rx="2" ry="2"/>
    
    <!-- Content tekst lijnen -->
    <rect x="180" y="120" width="140" height="8" fill="#5852f2" rx="2" ry="2"/>
    <rect x="180" y="140" width="120" height="6" fill="#a9a6f2" rx="2" ry="2"/>
    <rect x="180" y="160" width="100" height="6" fill="#a9a6f2" rx="2" ry="2"/>
    
    <rect x="180" y="240" width="140" height="8" fill="#5852f2" rx="2" ry="2"/>
    <rect x="180" y="260" width="120" height="6" fill="#a9a6f2" rx="2" ry="2"/>
    <rect x="180" y="280" width="130" height="6" fill="#a9a6f2" rx="2" ry="2"/>
    <rect x="180" y="300" width="110" height="6" fill="#a9a6f2" rx="2" ry="2"/>
    <rect x="180" y="320" width="90" height="6" fill="#a9a6f2" rx="2" ry="2"/>
    
    <rect x="380" y="120" width="160" height="8" fill="#5852f2" rx="2" ry="2"/>
    <rect x="380" y="140" width="140" height="6" fill="#a9a6f2" rx="2" ry="2"/>
    <rect x="380" y="160" width="120" height="6" fill="#a9a6f2" rx="2" ry="2"/>
    <rect x="380" y="180" width="160" height="6" fill="#a9a6f2" rx="2" ry="2"/>
    
    <rect x="380" y="220" width="160" height="8" fill="#5852f2" rx="2" ry="2"/>
    <rect x="380" y="240" width="140" height="6" fill="#a9a6f2" rx="2" ry="2"/>
    <rect x="380" y="260" width="120" height="6" fill="#a9a6f2" rx="2" ry="2"/>
    
    <rect x="380" y="300" width="160" height="8" fill="#5852f2" rx="2" ry="2"/>
    <rect x="380" y="320" width="140" height="6" fill="#a9a6f2" rx="2" ry="2"/>
    <rect x="380" y="340" width="120" height="6" fill="#a9a6f2" rx="2" ry="2"/>
    
    <!-- AI icon -->
    <circle cx="500" cy="50" r="15" fill="#5852f2" opacity="0.2"/>
    <text x="500" y="55" font-family="Arial, sans-serif" font-size="16" font-weight="bold" fill="#5852f2" text-anchor="middle">AI</text>
</svg> 